<?xml version="1.0" standalone="no"?>
<!DOCTYPE svg PUBLIC "-//W3C//DTD SVG 20010904//EN"
 "http://www.w3.org/TR/2001/REC-SVG-20010904/DTD/svg10.dtd">
<svg version="1.0" xmlns="http://www.w3.org/2000/svg"
 width="512.000000pt" height="512.000000pt" viewBox="0 0 512.000000 512.000000"
 preserveAspectRatio="xMidYMid meet">
<metadata>
Created by potrace 1.11, written by Peter Selinger 2001-2013
</metadata>
<g transform="translate(0.000000,512.000000) scale(0.100000,-0.100000)"
fill="#000000" stroke="none">
<path d="M947 4803 c-24 -17 -48 -47 -64 -83 -15 -30 -43 -69 -63 -85 -42 -34
-92 -102 -115 -159 -27 -65 -8 -52 25 17 31 64 67 105 124 143 65 42 212 15
350 -63 33 -20 85 -44 114 -54 69 -24 164 -82 196 -119 13 -17 29 -30 35 -30
6 0 11 -13 11 -30 0 -20 -5 -30 -15 -30 -8 0 -15 -4 -15 -10 0 -19 39 -10 58
15 11 13 22 22 24 20 3 -3 13 6 23 19 17 23 21 24 46 11 19 -10 29 -26 35 -52
4 -21 8 -41 9 -45 2 -5 3 -26 4 -48 0 -22 5 -40 10 -40 18 0 21 67 6 118 -17
58 -94 215 -95 194 0 -7 6 -25 14 -40 7 -15 16 -40 20 -56 6 -26 5 -28 -8 -17
-8 7 -12 19 -9 27 8 21 -10 17 -25 -6 -7 -11 -18 -20 -24 -20 -9 0 -9 3 -1 11
15 15 7 37 -25 71 -28 31 -25 50 3 21 19 -19 45 -26 45 -13 0 5 -6 11 -12 14
-10 4 -10 8 -2 11 7 3 10 15 7 25 -7 27 36 62 127 106 62 30 89 37 158 42 51
3 78 8 70 13 -8 5 7 9 40 9 28 0 52 4 52 9 0 5 8 11 18 14 46 10 -161 -2 -213
-13 -68 -14 -160 -50 -215 -85 -21 -13 -40 -22 -43 -19 -10 10 -47 -21 -56
-48 -6 -16 -14 -28 -18 -28 -4 0 -21 20 -38 44 -45 66 -177 165 -275 208 -156
68 -230 76 -293 31z m230 -16 c7 0 10 -3 8 -7 -4 -7 126 -66 138 -62 5 1 6 -1
3 -6 -3 -5 6 -15 19 -22 14 -7 25 -17 25 -22 0 -4 6 -8 13 -8 17 0 147 -133
147 -150 0 -6 -3 -10 -7 -8 -144 71 -208 99 -248 108 -28 6 -59 16 -70 23 -67
37 -140 68 -177 73 -24 4 -48 11 -55 16 -7 5 -14 5 -18 -2 -3 -5 -18 -10 -32
-10 -25 0 -25 0 -7 28 37 58 86 73 189 59 33 -5 65 -9 72 -10z m533 -171 c0
-2 -7 -7 -16 -10 -8 -3 -12 -2 -9 4 6 10 25 14 25 6z m-219 -143 c13 -16 12
-17 -3 -4 -17 13 -22 21 -14 21 2 0 10 -8 17 -17z"/>
<path d="M2835 4813 c-49 -6 -123 -14 -164 -17 -40 -4 -78 -9 -83 -13 -6 -3
-63 -10 -127 -14 -139 -10 -154 -12 -159 -27 -2 -6 -17 -8 -37 -5 -52 8 -145
-6 -145 -22 0 -11 12 -13 47 -11 26 2 49 9 51 15 6 17 42 13 42 -4 0 -13 4
-14 21 -5 11 6 52 13 92 16 40 2 65 2 57 -2 -8 -3 -24 -9 -35 -14 -11 -5 -37
-14 -57 -20 -21 -6 -40 -16 -44 -21 -3 -5 -38 -24 -77 -43 -102 -48 -176 -111
-210 -179 -15 -31 -27 -60 -27 -65 0 -6 13 -22 30 -35 l30 -26 -28 -19 c-15
-11 -53 -29 -84 -40 l-57 -21 9 25 c6 14 10 40 10 57 0 35 -29 120 -48 139
-15 15 -28 3 -15 -14 33 -44 45 -218 15 -218 -16 0 -83 -50 -150 -114 -41 -38
-139 -175 -171 -238 -8 -16 -20 -28 -27 -28 -6 0 -11 -6 -10 -12 0 -7 -21 -58
-48 -113 l-48 -100 -94 100 c-52 55 -97 108 -100 118 -3 9 -10 17 -15 17 -38
0 28 119 83 150 52 29 123 92 124 110 1 8 8 39 17 68 9 28 13 52 9 52 -9 0
-32 -49 -32 -67 0 -17 -27 -17 -37 0 -9 16 -43 30 -43 19 0 -5 5 -13 11 -19 9
-9 4 -11 -17 -8 -15 1 -30 7 -31 12 -2 6 -15 8 -28 5 -14 -2 -25 0 -25 5 0 5
-16 10 -36 11 -20 2 -44 7 -54 12 -19 10 -60 2 -60 -11 0 -5 -7 -9 -15 -9 -18
0 -19 -12 -4 -27 7 -7 26 -6 64 2 35 9 55 9 57 3 2 -6 18 -12 35 -14 17 -2 57
-15 88 -30 l56 -27 -33 -31 c-18 -18 -36 -30 -39 -29 -4 2 -23 -9 -44 -23 -21
-14 -40 -23 -43 -19 -3 3 0 5 6 5 50 0 -93 75 -168 88 -43 8 -153 2 -243 -13
-53 -10 -140 -93 -158 -153 -25 -83 -43 -37 -38 94 4 84 5 86 39 115 19 16 60
39 91 51 31 12 62 31 69 43 7 11 9 17 5 12 -5 -4 -18 -1 -31 7 -19 13 -28 13
-75 -2 -61 -19 -72 -28 -58 -54 6 -11 6 -18 0 -18 -5 0 -20 -17 -33 -37 -20
-34 -23 -49 -22 -138 2 -85 6 -108 28 -155 14 -30 26 -63 26 -73 0 -10 4 -16
10 -12 6 4 6 15 0 31 -8 19 -6 26 5 30 17 7 20 34 4 34 -30 0 35 127 81 160
30 21 148 50 206 50 19 0 34 5 34 11 0 6 5 7 12 2 7 -4 23 -9 35 -11 36 -4
128 -50 151 -75 22 -23 22 -23 3 -71 l-18 -49 -29 39 c-38 50 -114 130 -114
119 0 -4 12 -33 27 -64 29 -60 166 -205 186 -198 26 8 68 -75 45 -89 -4 -3 -8
-25 -8 -48 0 -41 -2 -44 -31 -50 -23 -4 -35 -2 -44 10 -11 15 -14 15 -38 -1
-14 -9 -34 -14 -45 -11 -12 4 -29 -2 -46 -15 -20 -16 -36 -20 -61 -16 -24 4
-35 1 -39 -10 -4 -11 -10 -12 -19 -5 -6 5 -30 13 -52 17 -40 7 -127 59 -160
95 -10 11 -25 20 -34 20 -26 -1 88 -100 146 -127 l51 -24 -38 -67 c-42 -72
-62 -131 -41 -117 12 7 40 -21 40 -40 0 -5 -6 -2 -13 8 -19 24 -46 22 -39 -3
4 -14 1 -20 -8 -18 -8 2 -22 -22 -36 -62 -13 -36 -28 -69 -34 -74 -5 -6 -9
-19 -9 -29 0 -18 -16 -96 -46 -217 -7 -30 -12 -56 -10 -57 4 -4 44 105 50 137
2 14 9 39 16 55 6 17 14 46 16 65 7 59 10 70 22 82 14 14 12 16 40 -52 26 -66
27 -71 6 -96 -8 -10 -13 -14 -10 -7 4 6 2 14 -4 18 -6 4 -8 11 -5 16 4 5 1 9
-4 9 -6 0 -11 5 -11 11 0 6 7 9 15 5 8 -3 15 -1 15 5 0 19 -32 22 -48 4 -11
-11 -12 -15 -3 -10 11 6 13 4 8 -9 -5 -11 -3 -15 5 -10 8 5 9 2 3 -12 -4 -10
-7 -34 -6 -51 1 -18 -3 -33 -9 -33 -5 0 -9 3 -9 8 1 4 1 14 0 22 -1 13 -3 13
-10 1 -10 -16 5 -59 26 -78 10 -7 11 -13 4 -18 -6 -3 -11 -15 -11 -26 0 -11 5
-17 10 -14 8 5 11 -7 10 -40 0 -3 11 -17 26 -32 21 -21 28 -23 35 -12 8 12 11
12 19 -1 9 -13 10 -13 10 0 0 8 7 2 15 -14 19 -36 19 -35 -5 -29 -11 3 -20 1
-20 -4 0 -8 14 -9 51 -4 7 1 4 79 -4 87 -6 6 19 64 28 64 7 0 45 -91 45 -109
0 -12 2 -13 9 -3 6 11 20 9 72 -9 63 -22 119 -21 119 1 0 6 -3 9 -8 9 -24 -4
-52 2 -47 11 4 6 -5 7 -23 4 -26 -5 -30 -3 -36 21 -4 15 -4 35 -1 46 10 30 -3
22 -21 -12 -12 -24 -13 -34 -4 -39 8 -5 8 -9 -3 -13 -7 -3 -20 -1 -27 3 -11 7
-10 12 4 25 9 10 20 31 23 47 4 19 10 27 19 24 19 -7 40 37 49 101 l7 51 26
-13 c15 -7 39 -19 54 -25 19 -9 25 -18 22 -33 -3 -19 -18 -157 -29 -286 -3
-30 -8 -57 -11 -60 -3 -3 -27 -6 -54 -6 -59 0 -50 -15 14 -22 45 -6 46 -6 46
-42 0 -67 -7 -78 -48 -75 -58 4 -102 14 -102 22 0 4 -9 8 -20 8 -13 0 -18 -6
-17 -20 1 -15 -4 -21 -21 -22 -12 -1 -22 4 -22 12 0 7 -6 14 -12 17 -10 4 -10
7 0 18 7 8 12 10 10 4 -3 -10 4 -15 22 -15 7 0 10 40 9 110 -1 66 -5 110 -11
110 -6 0 -8 14 -6 30 3 17 1 30 -4 30 -4 0 -8 -25 -8 -56 0 -38 3 -53 11 -48
8 4 9 -1 3 -17 -5 -13 -9 -39 -9 -58 0 -19 -6 -36 -13 -39 -6 -2 -12 -11 -12
-20 -1 -15 -2 -15 -14 1 -13 16 -14 16 -27 0 -8 -9 -9 -14 -4 -11 7 4 10 -10
10 -37 0 -26 -4 -41 -10 -38 -5 3 -4 0 3 -8 19 -20 15 -49 -7 -49 -11 0 -23
-4 -26 -10 -3 -5 1 -10 9 -10 24 0 25 -12 10 -69 -7 -30 -15 -64 -17 -75 -1
-12 -6 -27 -10 -33 -5 -7 -14 -48 -21 -92 -10 -67 -10 -78 2 -74 8 4 12 15 9
29 -3 16 4 33 18 48 24 26 30 45 41 121 7 57 22 84 35 63 7 -10 9 -9 9 4 0 9
-5 18 -11 20 -8 3 -9 20 -4 56 6 44 10 52 28 52 11 0 17 -3 14 -6 -10 -10 33
-64 50 -64 24 0 53 -30 46 -48 -4 -8 -2 -13 3 -9 6 3 11 -4 11 -15 2 -23 23
-51 23 -30 0 7 5 12 10 12 6 0 8 -11 4 -26 -4 -17 -2 -29 7 -36 11 -8 11 -11
1 -15 -9 -4 -10 -8 -2 -18 6 -7 15 -28 20 -45 9 -32 9 -32 -12 -14 -21 19 -21
19 -7 -3 8 -13 18 -23 22 -23 12 0 1 -164 -17 -247 -24 -111 -27 -135 -16
-128 6 3 10 14 10 24 0 10 6 24 14 30 12 10 15 6 21 -19 5 -24 3 -34 -11 -45
-10 -7 -24 -11 -31 -8 -7 3 -15 -7 -19 -24 -4 -15 -10 -32 -14 -38 -4 -5 -11
-39 -15 -75 -4 -36 -11 -69 -15 -75 -4 -5 -10 -28 -13 -50 -3 -22 -8 -53 -11
-70 -3 -16 -8 -52 -11 -80 -6 -56 -21 -140 -36 -200 -5 -22 -12 -60 -14 -85
-3 -25 -10 -63 -16 -84 -6 -22 -12 -58 -14 -80 -2 -23 -10 -75 -18 -116 -24
-125 -28 -162 -17 -155 5 3 10 1 10 -4 0 -6 -4 -11 -9 -11 -11 0 -33 -59 -25
-71 3 -5 1 -9 -3 -9 -5 0 -7 -18 -5 -40 2 -22 0 -40 -6 -40 -5 0 -13 -28 -16
-62 -4 -35 -13 -90 -20 -123 -8 -33 -17 -90 -21 -127 l-7 -68 76 0 c74 0 76 0
82 28 25 106 52 203 59 210 4 4 5 -4 1 -18 -3 -14 -13 -62 -21 -106 -8 -45
-17 -89 -21 -98 -11 -28 3 -17 25 20 13 22 27 34 35 31 24 -10 27 6 5 29 -15
17 -18 27 -11 39 6 12 11 14 16 6 4 -6 3 -11 -3 -11 -6 0 -8 -7 -4 -16 3 -9
12 -13 21 -9 10 4 23 -3 33 -17 10 -12 21 -19 26 -15 4 5 3 11 -3 15 -6 4 -13
18 -17 30 -5 22 -4 22 11 9 9 -8 24 -12 32 -9 12 4 13 3 3 -10 -7 -8 -10 -18
-7 -21 4 -4 0 -17 -8 -29 -27 -42 -29 -58 -8 -58 14 0 21 9 26 35 7 40 14 47
33 35 16 -9 7 -41 -10 -38 -6 2 -13 -2 -16 -9 -3 -7 3 -9 16 -6 12 3 21 1 21
-6 0 -18 77 -14 84 5 3 8 10 12 16 9 6 -4 8 -11 5 -16 -4 -5 87 -9 232 -8 131
0 231 3 223 5 -100 33 -105 44 -65 150 14 37 23 69 20 72 -3 3 0 11 6 19 9 9
8 13 0 13 -6 0 -14 -13 -17 -30 -4 -16 -10 -30 -15 -30 -12 0 -11 27 1 35 6 4
8 11 5 16 -9 14 5 50 16 43 5 -3 7 -10 4 -15 -4 -5 -2 -9 3 -9 6 0 29 47 52
104 41 103 63 136 91 136 21 0 177 -67 209 -90 16 -11 34 -20 42 -20 7 0 35
-11 62 -25 27 -13 52 -22 57 -19 5 3 9 1 9 -3 0 -5 10 -9 23 -10 12 -1 53 -14
90 -29 62 -25 67 -29 51 -41 -10 -7 -27 -14 -38 -14 -12 -1 -25 -2 -31 -3 -21
-2 -52 -33 -100 -99 -27 -37 -62 -84 -77 -104 -16 -20 -28 -41 -28 -47 1 -13
37 30 77 89 57 84 114 145 136 145 21 -1 21 -1 4 -11 -28 -16 -86 -83 -123
-142 -50 -78 -41 -81 12 -4 26 37 51 67 56 67 6 0 -6 -21 -26 -47 -20 -27 -43
-60 -51 -75 l-16 -28 580 0 579 0 -4 48 c-2 27 -6 64 -10 83 -3 19 -7 45 -9
59 -1 14 -5 36 -9 49 -6 16 -4 26 5 32 9 6 10 9 2 9 -6 0 -11 8 -11 17 0 10
-2 25 -6 34 -5 10 -1 19 8 22 9 4 16 1 17 -6 0 -21 18 -160 24 -197 3 -19 7
-48 9 -65 2 -16 9 -42 16 -58 l13 -27 168 0 c92 0 179 4 194 10 17 7 24 7 20
0 -4 -6 5 -10 19 -10 18 0 26 5 26 18 1 16 1 16 11 0 9 -16 29 -18 189 -18
180 0 180 0 181 23 1 12 1 28 0 35 -1 7 2 12 6 11 27 -5 35 2 29 26 -9 36 27
54 57 28 17 -14 19 -14 9 -1 -8 9 -9 19 -4 22 17 10 20 -32 5 -53 -8 -12 -11
-21 -7 -21 3 0 1 -7 -6 -15 -6 -8 -9 -19 -5 -25 3 -5 1 -10 -4 -10 -6 0 -11
-4 -11 -9 0 -5 34 -9 75 -9 42 -1 75 3 75 8 0 6 -7 10 -15 10 -18 0 -52 49
-39 58 13 10 17 35 4 27 -5 -3 -10 -1 -10 5 0 7 -6 10 -13 7 -7 -3 -13 3 -14
12 -1 9 -5 30 -9 48 -4 24 -1 36 14 51 18 18 22 19 34 5 7 -8 13 -26 14 -39 1
-30 14 -45 14 -18 1 18 1 18 12 -1 6 -11 14 -22 17 -25 10 -8 44 -62 66 -105
11 -23 29 -42 40 -44 19 -3 19 -3 -1 20 -12 13 -34 47 -48 74 -14 28 -44 75
-66 105 -22 30 -46 66 -54 80 -7 14 -30 52 -50 84 -20 33 -36 65 -36 71 0 7
-7 26 -16 43 -47 95 -78 291 -76 470 2 123 2 123 48 225 92 203 110 288 108
525 0 56 4 102 8 102 4 0 9 -7 9 -15 1 -8 3 -19 4 -25 1 -5 3 -14 4 -19 2 -16
37 -19 56 -5 15 11 16 14 4 14 -9 0 -21 11 -27 24 -9 19 -8 27 4 37 8 6 12 14
10 17 -3 2 2 12 11 21 14 13 14 16 2 19 -17 3 -44 42 -29 42 5 0 10 5 10 11 0
5 -5 7 -11 3 -14 -8 -3 64 12 82 5 6 8 35 8 64 -1 33 3 56 10 58 6 2 8 8 5 14
-4 6 0 14 7 19 11 7 10 9 -3 9 -14 0 -18 9 -20 38 l-1 37 -7 -45 c-4 -25 -8
-39 -8 -32 -1 7 -6 10 -12 7 -5 -3 -15 -3 -21 1 -8 4 -4 13 12 25 13 10 19 19
12 19 -7 0 -10 7 -7 15 6 14 1 16 -33 15 -4 0 -7 -13 -5 -28 3 -30 -2 -38 -37
-67 -15 -12 -21 -14 -16 -5 5 8 11 39 12 69 2 31 8 58 14 62 8 4 8 9 1 13 -6
3 -10 15 -9 25 1 16 5 18 19 10 12 -7 17 -18 14 -35 -3 -13 -1 -22 4 -19 5 3
11 1 15 -5 3 -5 10 -10 16 -10 13 0 11 44 -3 58 -9 9 -7 12 10 12 12 0 21 -3
21 -7 -3 -20 2 -43 9 -43 12 0 34 89 36 143 1 50 4 54 25 35 11 -11 12 -5 7
32 -4 25 -11 74 -16 110 -4 36 -15 85 -23 110 -9 25 -19 89 -23 143 -4 53 -10
97 -14 97 -5 0 -6 -10 -3 -22 4 -19 3 -20 -6 -8 -6 8 -11 39 -11 68 0 59 -15
96 -35 88 -18 -6 -24 35 -29 204 -3 98 -2 127 5 105 6 -16 14 -39 19 -50 5
-11 11 -29 13 -40 4 -17 5 -16 6 4 1 28 -59 223 -72 232 -5 3 -8 9 -8 13 3 19
-1 39 -6 29 -2 -7 -9 -13 -14 -13 -15 0 -10 59 7 85 10 15 12 25 5 25 -6 0
-17 -13 -26 -30 -9 -16 -19 -30 -24 -30 -7 0 -23 50 -26 85 0 6 -6 20 -13 31
-9 17 -8 25 3 40 10 14 14 15 15 5 0 -8 3 -12 6 -8 8 8 -6 47 -17 47 -6 0 -7
-4 -4 -10 4 -6 -1 -7 -11 -3 -10 4 -15 2 -11 -4 3 -5 0 -10 -8 -10 -21 0 -20
1 25 46 22 22 40 46 40 55 0 9 -17 -2 -42 -30 -28 -31 -44 -42 -52 -34 -13 13
-29 13 -21 0 13 -21 -15 -9 -54 24 -47 39 -101 92 -101 99 0 11 -72 123 -94
147 -13 14 -32 39 -42 55 -10 17 -22 33 -27 36 -5 3 -2 23 7 43 14 33 14 37 0
43 -13 5 -14 17 -8 69 6 64 -3 94 -29 94 -5 0 -2 -9 8 -20 10 -11 15 -26 11
-36 -3 -9 -7 -53 -7 -97 l-1 -82 -25 30 c-92 108 -207 210 -312 276 -30 18
-66 44 -79 56 -14 13 -30 23 -36 23 -6 0 -22 9 -36 20 -24 19 -25 20 -3 20 12
0 28 -7 37 -15 8 -9 39 -23 68 -31 93 -29 220 -88 244 -115 17 -19 17 -19 -17
-5 -58 23 -79 28 -79 17 0 -6 19 -15 43 -22 23 -6 47 -15 52 -20 6 -4 29 -10
50 -12 22 -3 32 -2 21 0 -10 3 -31 19 -46 37 -30 34 -184 117 -260 140 -25 7
-69 23 -97 35 -29 11 -53 16 -53 11 0 -11 -20 -3 -55 23 -17 13 -10 14 65 11
47 -2 117 -8 155 -14 39 -6 77 -12 85 -14 9 -1 20 -5 25 -8 6 -3 49 -18 97
-32 88 -27 132 -49 190 -98 51 -42 48 -21 -2 24 -59 51 -121 81 -250 116 -126
35 -191 45 -330 47 -129 2 -201 -5 -194 -17 4 -5 18 -7 33 -4 17 5 21 4 12 -2
-19 -13 3 -26 32 -18 12 3 29 1 37 -5 11 -8 9 -9 -10 -4 -14 4 11 -14 55 -40
44 -25 84 -50 90 -54 5 -5 35 -19 65 -32 116 -48 245 -146 348 -263 34 -39 67
-70 73 -68 6 1 8 -2 5 -7 -4 -5 14 -34 39 -63 25 -29 58 -73 74 -98 16 -25 35
-52 43 -60 7 -9 14 -25 14 -35 1 -11 5 -28 9 -37 12 -29 -14 -21 -50 15 -50
49 -64 59 -77 51 -6 -4 -8 -3 -5 3 8 13 -15 33 -84 72 -83 46 -91 37 -13 -16
38 -25 84 -59 103 -74 19 -16 39 -25 44 -22 6 3 7 1 3 -5 -7 -11 63 -74 75
-67 4 3 9 -5 12 -17 4 -12 9 -19 13 -16 3 4 2 14 -4 24 -5 9 -7 25 -5 35 4 14
17 6 68 -43 75 -71 168 -221 190 -306 15 -55 22 -262 11 -314 -5 -23 -11 -64
-25 -170 -4 -32 -5 -58 -1 -58 18 0 -59 -325 -80 -340 -4 -3 -12 -16 -19 -30
l-12 -25 20 25 c27 34 35 21 20 -31 -8 -27 -14 -37 -16 -27 -8 34 -23 18 -23
-24 0 -24 -12 -86 -26 -138 -14 -52 -38 -142 -54 -200 -16 -58 -41 -166 -57
-241 -22 -112 -25 -141 -16 -160 7 -13 16 -40 21 -59 l9 -35 12 25 c10 24 11
24 7 -7 -3 -24 0 -33 10 -33 9 0 14 -9 12 -28 -2 -33 9 -55 24 -46 6 4 8 -1 3
-16 -5 -15 -3 -20 3 -16 6 3 14 -4 18 -16 7 -24 22 -38 39 -38 6 1 1 7 -9 15
-12 9 -15 15 -7 15 10 0 11 3 2 13 -13 16 -5 27 21 27 11 0 17 3 15 8 -3 4 1
13 9 20 8 7 14 10 14 6 0 -4 9 4 20 17 11 13 24 29 30 36 14 16 13 30 -2 36
-10 4 -10 6 0 6 6 1 12 9 12 19 0 10 7 27 15 38 13 17 14 17 15 2 0 -10 -4
-18 -10 -18 -5 0 -10 -7 -10 -15 0 -30 19 -14 41 35 12 27 24 48 26 47 5 -6
-46 -230 -57 -252 -15 -27 -51 -165 -51 -191 1 -32 -110 -311 -150 -379 -47
-80 -119 -172 -175 -223 -62 -57 -87 -76 -66 -49 37 45 125 267 116 291 -3 7
0 25 5 39 6 15 7 36 3 47 -9 23 -14 12 -64 -121 -25 -65 -100 -179 -106 -160
-2 5 1 18 7 28 25 49 55 302 38 330 -4 6 5 20 18 31 21 19 33 42 22 42 -2 0
-26 -21 -53 -46 -27 -25 -80 -66 -117 -90 -38 -25 -84 -60 -102 -79 -19 -18
-62 -48 -97 -67 -45 -24 -78 -52 -120 -103 -31 -38 -57 -78 -58 -89 0 -13 -3
-16 -12 -9 -7 6 -49 13 -93 17 -44 4 -84 11 -90 15 -5 5 -37 11 -70 15 -69 8
-84 11 -105 19 -8 3 -46 8 -84 12 -38 3 -76 10 -86 15 -15 8 -120 21 -120 15
0 -2 21 -13 48 -25 26 -12 62 -38 80 -57 29 -30 33 -40 28 -72 -2 -20 -9 -49
-15 -63 -7 -18 -7 -29 0 -34 6 -4 6 -11 -2 -20 -8 -10 -8 -14 -1 -14 6 0 9 -7
6 -15 -4 -8 -2 -15 2 -15 8 0 10 -15 14 -94 1 -16 5 -37 10 -47 11 -19 -5 -29
-45 -29 -12 0 -70 -25 -128 -55 -58 -30 -112 -55 -121 -55 -33 0 -355 113
-434 152 -82 41 -88 49 -44 63 18 5 22 3 22 -17 1 -21 1 -22 11 -4 7 11 11 73
10 157 -1 141 -23 273 -58 343 l-15 28 46 -31 c24 -17 52 -31 62 -31 10 0 26
-8 37 -17 11 -10 17 -13 14 -6 -4 6 -44 37 -90 68 -76 53 -343 312 -332 323 2
2 -11 23 -30 46 -31 38 -135 234 -135 254 0 5 -10 22 -22 38 -13 15 -17 25
-10 20 9 -6 10 -2 1 18 -7 14 -15 23 -19 21 -11 -7 -19 20 -14 42 3 11 -2 25
-10 32 -16 14 -23 36 -8 27 5 -3 9 1 9 9 0 8 -6 15 -13 15 -15 0 -25 48 -10
53 6 2 8 8 4 12 -12 13 -28 -5 -29 -33 0 -26 -1 -25 -14 8 -19 48 -18 26 1
-35 8 -27 18 -61 20 -75 3 -13 10 -30 16 -37 5 -7 8 -18 5 -25 -2 -7 1 -27 8
-45 8 -17 11 -34 7 -37 -9 -10 -10 -46 0 -40 4 3 9 -3 10 -13 1 -10 2 -25 3
-33 1 -8 8 -28 17 -45 8 -16 23 -57 32 -90 10 -33 22 -68 27 -78 44 -83 -115
149 -176 258 -97 171 -173 359 -189 465 -2 19 -8 79 -12 133 -4 53 -11 97 -17
97 -6 0 -6 4 0 13 6 6 13 91 17 188 9 259 33 481 53 493 11 6 12 10 4 16 -9 5
-9 17 -2 46 50 196 67 257 87 310 12 33 25 78 29 100 4 21 13 49 21 61 16 26
18 43 4 43 -5 0 -17 -26 -25 -57 -9 -32 -18 -63 -20 -70 -6 -18 -70 1 -112 33
l-36 27 24 10 c13 6 27 10 30 9 4 -1 16 26 28 58 12 33 27 60 32 60 11 0 72
-41 77 -52 6 -14 22 -8 22 7 0 8 4 15 8 15 5 0 9 6 9 13 0 20 63 157 95 206
16 25 60 94 98 154 71 108 101 143 56 64 -17 -31 -20 -44 -10 -44 7 0 11 4 8
8 -2 4 22 28 53 52 32 24 69 56 83 69 14 14 38 28 53 32 16 4 45 17 65 30 20
13 55 28 77 35 22 7 47 15 55 18 8 3 30 7 48 9 30 3 32 1 26 -19 -3 -12 -13
-34 -20 -49 -10 -19 -11 -29 -3 -34 7 -4 2 -15 -15 -30 -15 -14 -23 -30 -20
-39 4 -8 1 -15 -6 -15 -9 0 -10 -10 -6 -32 4 -18 7 -48 7 -65 -1 -22 4 -33 13
-33 16 0 26 21 26 55 0 13 7 30 15 38 8 8 11 17 8 21 -4 3 2 6 13 7 10 0 13 3
7 6 -7 2 -13 9 -13 14 0 6 5 7 10 4 6 -3 10 -1 10 5 0 7 13 24 28 38 16 15 27
33 24 41 -3 9 0 11 7 6 14 -8 53 23 45 36 -2 4 12 11 32 15 43 8 69 -4 132
-63 48 -45 89 -61 47 -18 -14 13 -25 31 -25 40 0 8 -6 15 -13 15 -7 0 -20 9
-30 20 -19 23 -16 24 33 11 19 -6 54 -15 78 -21 31 -8 42 -16 42 -31 0 -15 6
-19 28 -18 37 1 239 -34 248 -44 4 -4 17 -7 28 -7 34 0 210 -61 223 -77 6 -8
27 -16 47 -17 19 -2 50 -14 68 -28 18 -14 56 -37 83 -51 28 -14 68 -43 90 -64
42 -42 74 -48 54 -11 -9 17 -5 16 26 -7 20 -16 43 -38 51 -49 8 -11 14 -16 14
-10 0 6 -11 24 -25 40 -14 16 -25 32 -25 36 0 10 -128 111 -175 137 -22 13
-31 16 -21 7 11 -9 15 -16 9 -16 -6 0 -16 7 -23 15 -7 8 -18 15 -26 15 -7 0
-15 8 -19 18 -3 9 -23 28 -45 42 -22 13 -40 28 -40 32 0 4 -6 8 -14 8 -7 0
-37 13 -67 29 -57 30 -87 37 -185 47 -32 3 -67 10 -76 15 -9 5 -23 7 -30 6 -7
-2 -9 -2 -5 1 11 6 -63 42 -87 42 -38 0 6 30 50 34 23 2 51 9 64 16 16 8 34 9
64 2 22 -5 48 -10 56 -9 8 0 34 -3 56 -7 27 -5 44 -4 49 4 4 6 15 8 26 5 11
-4 19 -2 19 4 0 10 -29 16 -52 12 -5 0 -8 3 -8 8 0 5 -26 12 -57 16 -32 4 -66
14 -75 22 -12 11 -27 14 -49 9 -18 -3 -37 -2 -44 4 -8 7 -21 6 -41 -4 -37 -18
-104 -28 -104 -15 0 5 8 9 17 9 15 0 14 2 -4 15 -18 13 -26 13 -53 1 -21 -8
-28 -15 -19 -18 8 -3 11 -8 7 -12 -10 -12 -82 -15 -95 -4 -9 7 -13 7 -13 0 0
-6 -13 -5 -35 2 -66 23 -62 33 15 47 40 7 77 18 84 24 15 15 52 35 64 35 6 0
8 -10 6 -22 l-5 -23 10 23 c9 18 18 22 53 21 24 -1 57 5 73 12 l30 13 -45 7
c-34 5 -23 7 45 6 50 -1 101 -4 115 -8 l25 -7 -25 -1 c-40 -2 -53 -15 -30 -29
11 -7 20 -8 20 -3 0 4 11 6 25 3 14 -2 25 -8 25 -12 0 -4 11 -10 24 -12 17 -4
23 -1 19 9 -7 18 -1 17 47 -8 22 -12 48 -18 57 -15 15 6 13 10 -12 31 -29 24
-50 29 -89 25 -11 -1 -15 3 -12 9 4 6 0 11 -9 11 -9 0 -13 5 -10 11 4 6 14 8
24 4 12 -5 13 -3 5 5 -7 7 -22 10 -35 8 -13 -2 -30 4 -37 12 -7 8 -12 11 -11
5 3 -22 -2 -29 -11 -15 -8 13 -11 12 -25 -5 -13 -15 -15 -16 -11 -3 2 9 -2 19
-10 22 -20 8 -192 9 -224 2 -14 -3 -42 -8 -62 -11 -61 -8 -173 -57 -161 -69 4
-4 -1 -4 -11 0 -12 5 -17 4 -13 -3 4 -6 -3 -8 -18 -5 -15 2 -25 0 -25 -7 0 -7
-5 -9 -11 -5 -11 6 -73 -21 -96 -43 -17 -16 -86 -26 -123 -18 -36 8 -39 29
-10 85 25 48 72 84 185 140 33 16 67 34 75 40 8 5 35 18 60 29 71 31 124 55
134 59 5 3 6 0 2 -7 -4 -6 -3 -11 2 -11 6 0 12 -7 15 -14 4 -10 1 -13 -8 -10
-23 9 -38 -5 -24 -22 9 -11 8 -14 -6 -14 -10 0 -16 -3 -12 -6 3 -4 39 9 79 29
114 54 167 77 179 77 7 0 37 12 68 28 l56 27 225 0 225 -1 120 -38 c66 -21
128 -38 138 -38 9 1 17 -3 17 -9 0 -5 6 -9 13 -9 40 0 128 -58 195 -128 81
-85 84 -77 7 17 -42 51 -65 68 -140 105 -49 24 -110 49 -135 55 -25 7 -54 16
-65 20 -40 17 -131 40 -195 50 -82 13 -297 10 -415 -6z m-101 -54 c-3 -6 -15
-9 -25 -6 -11 3 -17 1 -13 -4 3 -5 -2 -10 -10 -10 -18 -2 -35 -5 -38 -9 -2 -1
-14 -3 -26 -4 -13 -2 -27 -9 -32 -16 -4 -7 -17 -10 -28 -8 -15 4 -19 2 -15 -8
9 -25 -13 -15 -25 10 -10 22 -8 26 9 31 12 4 36 7 55 7 19 0 34 4 34 8 0 11
26 17 78 19 29 1 41 -3 36 -10z m-109 -279 c3 -6 -1 -7 -9 -4 -18 7 -21 14 -7
14 6 0 13 -4 16 -10z m285 -16 c0 -2 -7 -4 -15 -4 -8 0 -15 4 -15 10 0 5 7 7
15 4 8 -4 15 -8 15 -10z m-320 -104 c0 -11 -4 -20 -9 -20 -5 0 -7 9 -4 20 3
11 7 20 9 20 2 0 4 -9 4 -20z m-190 -30 c0 -5 -5 -10 -11 -10 -5 0 -7 5 -4 10
3 6 8 10 11 10 2 0 4 -4 4 -10z m-1290 -124 c0 -3 -4 -8 -10 -11 -5 -3 -10 -1
-10 4 0 6 5 11 10 11 6 0 10 -2 10 -4z m2201 -253 c13 -16 12 -17 -3 -4 -17
13 -22 21 -14 21 2 0 10 -8 17 -17z m-2131 -448 c-7 -8 -18 -15 -24 -15 -6 0
-2 7 8 15 25 19 32 19 16 0z m3093 -5 c3 -11 1 -18 -4 -14 -5 3 -9 12 -9 20 0
20 7 17 13 -6z m-3178 -20 c3 -5 2 -10 -4 -10 -5 0 -13 5 -16 10 -3 6 -2 10 4
10 5 0 13 -4 16 -10z m99 -35 c35 -19 74 -35 88 -35 13 0 27 -2 30 -5 3 -3 -4
-31 -15 -61 l-21 -56 -17 23 c-10 13 -15 28 -12 34 4 5 3 7 -2 3 -4 -4 -14 -3
-22 4 -25 21 -22 3 9 -41 24 -36 29 -52 25 -85 -4 -38 -46 -206 -53 -215 -6
-7 -70 23 -124 60 -30 21 -67 40 -83 44 -21 6 -27 13 -27 34 0 17 3 22 8 13
13 -19 39 -4 47 26 4 18 9 22 14 13 14 -22 21 2 30 102 5 53 14 105 21 116 6
12 9 25 6 30 -3 5 2 8 12 7 9 0 16 5 15 12 -4 18 2 16 71 -23z m-333 -18 c-6
-8 -8 -17 -4 -20 3 -4 1 -7 -5 -7 -14 0 -14 2 -6 24 3 9 11 16 16 16 7 0 6 -5
-1 -13z m3420 -240 c1 -54 6 -100 11 -103 6 -4 5 -10 -3 -15 -11 -7 -11 -9 -1
-9 14 0 13 -7 -19 -208 -19 -119 -38 -181 -79 -261 -15 -30 -16 -41 -7 -51 9
-10 9 -11 0 -6 -6 3 -14 2 -18 -4 -4 -6 -13 -5 -25 2 -15 10 -17 16 -8 32 15
28 20 79 8 71 -14 -9 -12 13 4 43 29 54 69 210 82 316 8 59 18 125 24 145 5
20 10 52 10 71 0 36 10 83 16 78 1 -2 4 -47 5 -101z m-3387 -9 c10 -40 6 -54
-9 -28 -8 14 -14 31 -15 38 0 21 17 13 24 -10z m-34 -223 c8 -20 19 -34 24
-32 6 3 12 -6 12 -19 1 -14 -2 -21 -8 -18 -6 4 -14 0 -19 -7 -5 -9 -9 -10 -9
-2 0 6 -9 9 -20 6 -17 -5 -18 -8 -8 -21 11 -13 10 -14 -9 -3 -13 6 -23 17 -23
24 0 7 -4 6 -10 -3 -8 -12 -10 -10 -10 8 0 15 4 21 12 16 7 -4 8 -3 4 5 -8 13
10 41 27 41 7 0 7 -4 -1 -12 -17 -17 -15 -48 2 -48 8 0 18 5 21 10 3 6 2 10
-2 10 -5 0 -9 18 -8 40 0 49 7 51 25 5z m30 15 c0 -5 -4 -10 -10 -10 -5 0 -10
5 -10 10 0 6 5 10 10 10 6 0 10 -4 10 -10z m160 -65 c0 -8 -4 -15 -10 -15 -5
0 -7 7 -4 15 4 8 8 15 10 15 2 0 4 -7 4 -15z m-177 -65 c-3 -11 -9 -17 -14
-15 -10 7 -1 35 11 35 5 0 6 -9 3 -20z m-70 -34 c4 -10 1 -13 -9 -9 -7 3 -14
9 -14 14 0 14 17 10 23 -5z m137 -270 c0 -3 -4 -8 -10 -11 -5 -3 -10 -1 -10 4
0 6 5 11 10 11 6 0 10 -2 10 -4z m63 -102 c-20 -15 -43 -18 -43 -6 0 14 10 20
36 20 22 0 23 -2 7 -14z m3219 -13 c4 -24 2 -27 -12 -19 -18 12 -21 48 -4 48
6 0 14 -13 16 -29z m153 9 c3 -5 1 -10 -4 -10 -6 0 -11 5 -11 10 0 6 2 10 4
10 3 0 8 -4 11 -10z m-52 -37 c4 -21 2 -42 -3 -47 -7 -7 -10 -5 -11 5 0 7 -2
29 -4 47 -5 45 11 40 18 -5z m-3303 -13 c0 -5 -2 -10 -4 -10 -3 0 -8 5 -11 10
-3 6 -1 10 4 10 6 0 11 -4 11 -10z m3159 -87 c-12 -33 -15 -29 -13 20 3 68 6
74 14 38 5 -19 4 -45 -1 -58z m211 73 c0 -23 -17 -28 -34 -10 -21 21 -20 24 9
24 15 0 25 -6 25 -14z m-154 -4 c-3 -4 -1 -25 4 -45 4 -21 4 -37 -1 -37 -5 0
-9 3 -10 8 0 4 -2 20 -4 36 -4 28 1 46 11 46 3 0 3 -4 0 -8z m-53 -164 c-7
-43 -26 -64 -19 -23 2 17 5 36 5 43 1 6 5 12 11 12 5 0 7 -14 3 -32z m-15 -94
c-1 -23 -4 -31 -9 -22 -7 13 -2 58 7 58 2 0 3 -16 2 -36z m122 16 c0 -5 -4
-10 -10 -10 -5 0 -10 5 -10 10 0 6 5 10 10 10 6 0 10 -4 10 -10z m60 -20 c0
-5 -2 -10 -4 -10 -3 0 -8 5 -11 10 -3 6 -1 10 4 10 6 0 11 -4 11 -10z m-320
-60 c-16 -40 -23 -33 -9 9 6 18 14 30 17 27 2 -3 -1 -19 -8 -36z m-2865 -69
c-2 -36 1 -73 6 -83 7 -13 6 -18 -5 -18 -8 0 -17 -6 -20 -12 -4 -7 -4 5 -1 27
3 22 5 72 5 110 0 45 4 65 9 56 5 -8 8 -44 6 -80z m3003 28 c0 -33 3 -63 6
-67 3 -3 1 -11 -4 -18 -6 -6 -13 -35 -17 -63 -3 -28 -8 -49 -11 -46 -11 11 1
226 14 247 9 15 11 9 12 -53z m103 -46 c13 -16 12 -17 -3 -4 -17 13 -22 21
-14 21 2 0 10 -8 17 -17z m-11 -75 c-25 -20 -26 -30 -3 -21 12 5 8 -2 -9 -20
-15 -15 -30 -27 -33 -27 -10 0 -5 28 6 32 6 2 12 20 13 39 4 53 16 67 32 38
12 -21 11 -26 -6 -41z m80 -49 c0 -6 -4 -7 -10 -4 -5 3 -10 11 -10 16 0 6 5 7
10 4 6 -3 10 -11 10 -16z m-3152 -14 c-3 -3 -9 2 -12 12 -6 14 -5 15 5 6 7 -7
10 -15 7 -18z m2776 -11 c10 -25 -1 -29 -14 -5 -6 12 -7 21 -1 21 5 0 12 -7
15 -16z m223 -14 c-1 -20 -8 -25 -20 -14 -3 3 0 12 6 20 16 17 16 17 14 -6z
m-83 -15 c-4 -8 -8 -15 -10 -15 -2 0 -4 7 -4 15 0 8 4 15 10 15 5 0 7 -7 4
-15z m46 -55 c-10 -19 -27 -44 -39 -54 -12 -11 -21 -28 -21 -39 0 -21 0 -21
-15 -1 -13 17 -12 21 10 37 14 10 25 25 25 33 0 8 6 32 12 54 12 36 14 38 29
22 15 -16 15 -20 -1 -52z m-3003 -92 c-3 -7 -5 -2 -5 12 0 14 2 19 5 13 2 -7
2 -19 0 -25z m2893 28 c0 -2 -8 -10 -17 -17 -16 -13 -17 -12 -4 4 13 16 21 21
21 13z m-2490 -140 c28 -54 63 -116 79 -139 15 -23 34 -53 41 -67 l13 -25 -27
25 c-23 21 -29 22 -37 10 -8 -11 -12 -12 -16 -2 -2 6 -9 10 -14 6 -5 -3 -10 3
-11 13 0 10 -2 23 -2 28 -1 6 -9 21 -19 35 -9 13 -17 31 -17 40 0 8 -11 51
-25 95 -36 117 -35 116 35 -19z m-390 74 c0 -5 -2 -10 -4 -10 -3 0 -8 5 -11
10 -3 6 -1 10 4 10 6 0 11 -4 11 -10z m-55 -117 c4 -52 4 -93 -1 -93 -5 0 -9
10 -10 23 -6 171 -6 173 0 166 2 -2 7 -46 11 -96z m263 52 c-3 -3 -9 2 -12 12
-6 14 -5 15 5 6 7 -7 10 -15 7 -18z m-198 -35 c0 -5 -2 -10 -4 -10 -3 0 -8 5
-11 10 -3 6 -1 10 4 10 6 0 11 -4 11 -10z m294 -122 c-5 -7 -3 -8 6 -3 10 6
12 4 7 -8 -3 -9 -1 -18 6 -20 7 -2 9 -7 5 -11 -3 -4 -15 -1 -27 6 -16 9 -21
23 -21 53 0 39 0 39 16 17 8 -12 12 -27 8 -34z m-49 -47 c-7 -6 -22 64 -16 74
3 6 9 -8 12 -30 4 -22 5 -42 4 -44z m2768 29 c-3 -12 -8 -19 -11 -16 -5 6 5
36 12 36 2 0 2 -9 -1 -20z m-3038 -151 c19 -262 21 -387 6 -402 -5 -5 -8 7 -7
28 1 27 -4 41 -16 49 -18 11 -25 46 -10 46 4 0 8 10 8 23 3 322 9 402 19 256z
m-38 -1 c-3 -8 -6 -5 -6 6 -1 11 2 17 5 13 3 -3 4 -12 1 -19z m673 -22 c0 -5
-7 -1 -15 10 -8 10 -14 24 -14 29 0 6 6 1 14 -9 8 -11 15 -24 15 -30z m-200 2
c0 -12 -6 -9 -26 13 -19 22 -19 22 4 8 12 -8 22 -17 22 -21z m-472 -53 c0 -35
-11 -47 -21 -22 -7 18 4 68 13 62 4 -3 8 -21 8 -40z m358 -205 c4 -80 7 -156
7 -170 0 -14 5 -28 11 -32 8 -6 8 -8 0 -8 -6 0 -11 -13 -12 -30 -1 -35 -8 -50
-26 -50 -8 0 -11 12 -10 33 7 86 7 114 0 125 -4 6 -3 20 3 29 5 11 6 36 1 61
-4 25 -4 45 2 48 6 4 7 22 3 43 -4 20 -8 72 -10 116 l-3 80 13 -50 c8 -27 17
-115 21 -195z m128 225 c3 -8 1 -15 -4 -15 -6 0 -10 7 -10 15 0 8 2 15 4 15 2
0 6 -7 10 -15z m259 -30 c27 -25 44 -45 38 -45 -6 0 -31 20 -57 45 -58 58 -44
58 19 0z m1884 -37 c-3 -7 -5 -2 -5 12 0 14 2 19 5 13 2 -7 2 -19 0 -25z m-29
-19 c15 -1 15 -2 0 -6 -22 -5 -23 -19 -4 -26 9 -4 17 2 21 14 10 31 14 18 7
-20 l-7 -34 -33 32 c-36 36 -37 42 -19 60 10 10 13 9 15 -3 2 -9 11 -17 20
-17z m-2618 -89 c-6 -11 -8 -25 -5 -30 3 -6 2 -10 -4 -10 -16 0 -18 23 -6 55
7 17 11 41 10 55 -1 14 0 30 4 35 11 18 12 -84 1 -105z m2550 66 c0 -3 -4 -8
-10 -11 -5 -3 -10 -1 -10 4 0 6 5 11 10 11 6 0 10 -2 10 -4z m513 -84 c-5 -39
-8 -43 -13 -22 -4 14 -4 45 -2 70 4 38 6 42 13 22 5 -12 6 -44 2 -70z m-627
10 c-10 -10 -29 15 -21 28 6 9 10 8 17 -4 6 -10 7 -20 4 -24z m129 28 c3 -5 1
-10 -4 -10 -6 0 -11 5 -11 10 0 6 2 10 4 10 3 0 8 -4 11 -10z m-2348 -32 c-3
-7 -5 -2 -5 12 0 14 2 19 5 13 2 -7 2 -19 0 -25z m2713 -7 c-5 -11 -10 -29
-10 -40 0 -12 -4 -21 -9 -21 -20 0 -22 21 -4 50 19 33 40 42 23 11z m-550 -11
c0 -5 -7 -10 -16 -10 -8 0 -12 5 -9 10 3 6 10 10 16 10 5 0 9 -4 9 -10z
m-2160 -20 c0 -5 -4 -10 -10 -10 -5 0 -10 5 -10 10 0 6 5 10 10 10 6 0 10 -4
10 -10z m329 -52 c1 -10 -2 -18 -6 -18 -5 0 -9 19 -10 43 -1 34 0 37 7 17 4
-14 8 -33 9 -42z m-562 5 c-3 -10 -5 -2 -5 17 0 19 2 27 5 18 2 -10 2 -26 0
-35z m2727 -19 c-9 -22 -18 -33 -21 -26 -3 7 -1 20 3 30 4 9 6 21 5 25 -1 5 3
6 9 2 5 -3 10 -1 10 6 0 7 3 10 6 7 3 -3 -2 -23 -12 -44z m-101 20 c-5 -13 -7
-13 -14 -2 -7 10 -9 10 -9 1 0 -7 -5 -13 -11 -13 -8 0 -8 5 1 15 17 20 41 20
33 -1z m-2393 -19 c0 -14 -2 -25 -4 -25 -2 0 -6 11 -8 25 -3 14 -1 25 3 25 5
0 9 -11 9 -25z m2608 -54 c-32 -26 -35 -18 -7 17 16 19 25 24 27 15 2 -7 -7
-22 -20 -32z m-570 24 c-2 -1 -14 -8 -28 -15 -25 -13 -25 -13 -6 8 10 12 23
19 28 16 5 -3 8 -7 6 -9z m335 -5 c-3 -11 -9 -20 -13 -20 -5 0 -6 9 -3 20 3
11 9 20 13 20 5 0 6 -9 3 -20z m-1666 -62 c3 -35 2 -60 -2 -56 -4 4 -10 36
-12 70 -3 35 -2 60 2 56 4 -4 10 -35 12 -70z m917 40 c-3 -4 -11 -5 -19 -1
-21 7 -19 12 4 10 11 0 18 -5 15 -9z m627 -77 c12 -24 23 -64 24 -89 1 -25 6
-47 12 -49 12 -4 5 -53 -8 -53 -5 0 -9 15 -10 33 0 17 -4 41 -9 52 -8 19 -9
19 -9 -3 -1 -13 -5 -20 -11 -17 -12 7 -13 45 -2 45 10 0 8 73 -3 90 -4 6 -13
9 -21 6 -9 -3 -18 2 -21 12 -4 9 -11 21 -17 25 -7 5 -4 7 7 3 15 -5 17 -2 12
17 -6 21 -6 21 14 -3 12 -14 31 -45 42 -69z m-551 63 c0 -14 -3 -14 -15 -4 -8
7 -15 14 -15 16 0 2 7 4 15 4 8 0 15 -7 15 -16z m760 -5 c-7 -11 -14 -19 -16
-16 -7 7 7 37 17 37 6 0 5 -9 -1 -21z m-50 -34 c0 -8 -7 -15 -16 -15 -14 0
-14 3 -4 15 7 8 14 15 16 15 2 0 4 -7 4 -15z m330 -9 c0 -13 -6 -26 -13 -29
-10 -4 -12 3 -9 24 5 35 22 39 22 5z m-610 -4 c0 -10 -8 -18 -19 -19 -19 -2
-19 -1 -3 17 22 23 22 23 22 2z m205 -2 c-3 -5 -12 -10 -18 -10 -7 0 -6 4 3
10 19 12 23 12 15 0z m-2702 -43 c-3 -5 -10 -4 -15 1 -6 6 -7 16 -3 22 6 9 9
9 16 -1 4 -7 5 -17 2 -22z m2877 29 c0 -3 -11 -17 -24 -31 -19 -20 -29 -24
-41 -17 -14 7 -11 12 21 30 45 24 44 23 44 18z m-284 -44 c-10 -10 -29 15 -21
28 6 9 10 8 17 -4 6 -10 7 -20 4 -24z m173 22 c-8 -10 -9 -18 -2 -22 16 -11
25 -49 13 -57 -5 -3 -10 -1 -10 5 0 6 -3 9 -7 7 -5 -3 -9 15 -10 39 -2 34 1
44 14 44 13 0 13 -3 2 -16z m-2719 -20 c0 -8 -4 -14 -10 -14 -5 0 -10 9 -10
21 0 11 5 17 10 14 6 -3 10 -13 10 -21z m81 -27 c-13 -13 -15 11 -4 40 7 16 8
15 11 -6 2 -13 -1 -28 -7 -34z m946 11 c-3 -7 -5 -2 -5 12 0 14 2 19 5 13 2
-7 2 -19 0 -25z m2121 -7 c-1 -15 2 -33 6 -40 4 -6 2 -11 -3 -11 -6 0 -11 8
-12 18 0 9 -2 27 -5 40 -2 12 0 22 5 22 5 0 9 -13 9 -29z m-2873 -3 c6 -4 0
-8 -12 -8 -16 0 -21 4 -16 15 3 9 8 12 12 8 3 -4 11 -11 16 -15z m2119 -4 c5
-14 4 -15 -9 -4 -17 14 -19 20 -6 20 5 0 12 -7 15 -16z m106 -6 c20 -32 23
-59 4 -33 -24 31 -35 55 -27 55 5 0 15 -10 23 -22z m-2270 2 c0 -5 -2 -10 -4
-10 -3 0 -8 5 -11 10 -3 6 -1 10 4 10 6 0 11 -4 11 -10z m2220 -11 c0 -5 -4
-9 -10 -9 -5 0 -10 7 -10 16 0 8 5 12 10 9 6 -3 10 -10 10 -16z m-2500 -20 c0
-5 -4 -9 -10 -9 -5 0 -10 7 -10 16 0 8 5 12 10 9 6 -3 10 -10 10 -16z m700
-29 c0 -28 -5 -50 -10 -50 -6 0 -9 12 -6 28 2 15 5 37 5 50 2 44 11 21 11 -28z
m-570 19 c0 -11 -4 -17 -10 -14 -5 3 -10 13 -10 21 0 8 5 14 10 14 6 0 10 -9
10 -21z m2387 -3 c-10 -20 -14 -22 -20 -10 -10 17 -1 34 18 34 10 0 11 -5 2
-24z m-1992 -36 c1 -58 -2 -62 -26 -49 -15 8 -18 14 -10 23 6 7 8 16 4 20 -9
9 -13 38 -6 48 2 5 12 8 21 6 13 -3 17 -14 17 -48z m1798 30 c3 -11 1 -20 -4
-20 -5 0 -9 9 -9 20 0 11 2 20 4 20 2 0 6 -9 9 -20z m-2336 -32 c-3 -7 -5 -2
-5 12 0 14 2 19 5 13 2 -7 2 -19 0 -25z m325 25 c-6 -2 -9 -10 -6 -15 4 -7 2
-8 -5 -4 -13 9 -5 26 12 25 9 0 8 -2 -1 -6z m1948 3 c0 -3 -4 -8 -10 -11 -5
-3 -10 -1 -10 4 0 6 5 11 10 11 6 0 10 -2 10 -4z m-1183 -38 c-3 -8 -6 -5 -6
6 -1 11 2 17 5 13 3 -3 4 -12 1 -19z m1882 -23 c-1 -17 -2 -17 -6 -2 -2 9 -8
17 -13 17 -5 0 -7 7 -3 16 5 13 7 13 14 2 5 -7 8 -22 8 -33z m-689 28 c0 -5 6
-41 14 -80 7 -40 10 -73 6 -73 -5 0 -14 26 -20 58 -6 31 -14 67 -17 80 -3 12
0 22 6 22 6 0 11 -3 11 -7z m68 -22 c1 -17 6 -40 10 -52 9 -24 4 -69 -7 -69
-4 0 -7 8 -7 18 0 9 -3 43 -7 75 -3 31 -3 57 1 57 4 0 9 -13 10 -29z m166 2
c10 -24 -2 -29 -19 -7 -8 10 -15 22 -15 26 0 13 28 -3 34 -19z m117 -10 c-8
-15 -10 -15 -11 -2 0 17 10 32 18 25 2 -3 -1 -13 -7 -23z m-1767 2 c-7 -16
-24 -21 -24 -6 0 8 7 13 27 20 1 1 0 -6 -3 -14z m116 0 c0 -9 -6 -12 -15 -9
-8 4 -12 10 -9 15 8 14 24 10 24 -6z m986 -55 l7 -35 -21 19 c-14 12 -22 31
-22 50 0 27 2 29 15 16 8 -9 18 -31 21 -50z m707 38 c16 -17 22 -52 8 -43 -6
3 -11 13 -11 21 0 8 -4 14 -10 14 -5 0 -10 5 -10 10 0 14 9 13 23 -2z m-2106
-20 c-3 -8 -6 -5 -6 6 -1 11 2 17 5 13 3 -3 4 -12 1 -19z m1978 -25 c1 -10 12
-43 24 -73 14 -36 16 -48 6 -36 -8 11 -15 25 -15 31 0 5 -11 22 -24 36 -17 19
-22 33 -19 53 6 30 25 22 28 -11z m504 -5 c17 -37 17 -43 5 -46 -9 -2 -17 -2
-20 0 -4 5 -12 88 -7 88 1 0 11 -19 22 -42z m-2526 12 c-3 -11 -9 -20 -13 -20
-11 0 -9 -59 2 -66 4 -3 8 0 8 7 0 7 2 10 5 7 6 -6 -23 -65 -36 -73 -15 -10
-21 19 -9 49 7 21 7 32 -1 42 -11 14 -7 26 19 57 20 23 31 22 25 -3z m1364
-31 c-15 -9 -16 -13 -5 -26 11 -14 11 -15 -2 -11 -8 3 -15 14 -15 26 0 11 -4
24 -7 27 -4 4 -4 14 -1 22 5 12 10 11 27 -7 20 -20 20 -22 3 -31z m1053 21
c13 -8 13 -10 -2 -10 -9 0 -20 5 -23 10 -8 13 5 13 25 0z m-2631 -52 c-6 -11
-14 -50 -17 -87 -4 -37 -11 -64 -17 -62 -5 1 -9 8 -7 14 2 6 5 24 7 41 2 17 7
46 11 64 4 19 2 38 -5 46 -15 18 -2 27 20 15 16 -8 17 -14 8 -31z m2376 32 c3
-5 -1 -10 -9 -10 -9 0 -16 5 -16 10 0 6 4 10 9 10 6 0 13 -4 16 -10z m-2615
-22 c0 -41 -21 -102 -30 -88 -4 7 -3 26 2 42 6 15 8 35 5 42 -6 15 1 26 15 26
4 0 8 -10 8 -22z m576 -36 c-12 -11 -18 7 -10 30 l8 23 4 -23 c2 -13 1 -26 -2
-30z m1334 23 c0 -8 -2 -15 -4 -15 -2 0 -6 7 -10 15 -3 8 -1 15 4 15 6 0 10
-7 10 -15z m713 -21 c-4 -12 -8 -13 -14 -3 -9 15 -2 32 11 24 5 -3 6 -13 3
-21z m266 19 c-3 -20 2 -32 15 -35 8 -2 11 -10 6 -22 -6 -19 -7 -19 -28 2 -12
12 -32 23 -44 23 -21 1 -21 2 -3 6 11 3 24 11 28 19 8 15 28 19 26 7z m-589
-23 c0 -5 -2 -10 -4 -10 -3 0 -8 5 -11 10 -3 6 -1 10 4 10 6 0 11 -4 11 -10z
m908 -19 c3 -8 -1 -12 -9 -9 -7 2 -15 10 -17 17 -3 8 1 12 9 9 7 -2 15 -10 17
-17z m-2639 -56 c-1 -36 -6 -68 -11 -71 -8 -5 -13 20 -8 41 1 6 3 28 5 50 5
49 4 45 11 45 3 0 4 -29 3 -65z m2078 34 c-9 -14 -13 -15 -24 -4 -18 19 -16
23 11 21 19 -1 21 -4 13 -17z m198 11 c3 -5 1 -10 -4 -10 -6 0 -11 5 -11 10 0
6 2 10 4 10 3 0 8 -4 11 -10z m45 -45 c9 -10 9 -15 1 -15 -6 0 -11 5 -11 11 0
6 -7 9 -15 5 -8 -3 -15 -1 -15 4 0 15 26 12 40 -5z m220 6 c0 -5 -11 -8 -25
-8 -13 0 -22 3 -19 8 3 5 14 9 25 9 10 0 19 -4 19 -9z m197 -13 c-3 -8 -6 -5
-6 6 -1 11 2 17 5 13 3 -3 4 -12 1 -19z m-3122 -40 c-7 -37 -13 -48 -26 -48
-17 0 11 77 29 80 1 0 0 -14 -3 -32z m81 -20 c-9 -12 -16 -17 -16 -10 0 18 24
54 28 42 2 -5 -4 -20 -12 -32z m1139 22 c-3 -5 -12 -10 -18 -10 -7 0 -6 4 3
10 19 12 23 12 15 0z m-985 -31 c0 -6 -4 -7 -10 -4 -5 3 -10 11 -10 16 0 6 5
7 10 4 6 -3 10 -11 10 -16z m2495 11 c-3 -5 -12 -10 -18 -10 -7 0 -6 4 3 10
19 12 23 12 15 0z m-50 -10 c3 -5 2 -10 -4 -10 -5 0 -13 5 -16 10 -3 6 -2 10
4 10 5 0 13 -4 16 -10z m165 -9 c0 -20 -17 -37 -27 -28 -7 8 7 47 18 47 5 0 9
-9 9 -19z m-2830 -11 c0 -5 -4 -10 -10 -10 -5 0 -10 5 -10 10 0 6 5 10 10 10
6 0 10 -4 10 -10z m407 -12 c-3 -8 -6 -5 -6 6 -1 11 2 17 5 13 3 -3 4 -12 1
-19z m-527 -2 c0 -13 -29 -31 -37 -22 -4 4 25 36 33 36 2 0 4 -6 4 -14z m1987
-1 c9 -25 -2 -27 -22 -5 -17 18 -17 20 -1 20 9 0 19 -7 23 -15z m843 5 c0 -5
-4 -10 -10 -10 -5 0 -10 5 -10 10 0 6 5 10 10 10 6 0 10 -4 10 -10z m-2622
-28 c2 -7 -3 -12 -12 -12 -9 0 -16 7 -16 16 0 17 22 14 28 -4z m2676 6 c-7
-11 -34 -10 -34 1 0 6 9 9 19 8 11 0 17 -5 15 -9z m-3060 -19 c-3 -6 0 -15 7
-20 12 -7 12 -10 0 -21 -10 -10 -12 -10 -7 0 4 7 1 12 -8 12 -10 0 -16 -9 -16
-25 0 -14 -5 -25 -11 -25 -7 0 -9 10 -4 27 3 15 7 32 8 38 2 11 18 25 30 25 5
0 5 -5 1 -11z m3250 -10 c9 8 16 11 16 8 0 -3 3 -14 7 -24 6 -16 5 -16 -10 -4
-9 7 -17 9 -17 3 0 -5 -7 -12 -15 -16 -11 -4 -15 2 -15 22 0 20 3 23 9 13 8
-12 12 -12 25 -2z m-3099 -9 c3 -5 1 -10 -4 -10 -6 0 -11 5 -11 10 0 6 2 10 4
10 3 0 8 -4 11 -10z m505 -32 c0 -7 -5 -20 -10 -28 -8 -12 -10 -9 -10 13 0 15
5 27 10 27 6 0 10 -6 10 -12z m2416 -28 c-3 -42 -20 -70 -33 -55 -5 4 -2 10 5
12 7 3 12 22 12 44 0 21 4 39 9 39 5 0 8 -18 7 -40z m-2761 10 c3 -5 1 -10 -4
-10 -6 0 -11 5 -11 10 0 6 2 10 4 10 3 0 8 -4 11 -10z m1955 0 c0 -5 -2 -10
-4 -10 -3 0 -8 5 -11 10 -3 6 -1 10 4 10 6 0 11 -4 11 -10z m277 -25 c2 -14
-1 -25 -7 -25 -5 0 -10 14 -10 32 0 35 12 30 17 -7z m272 21 c10 -12 8 -13 -8
-9 -12 3 -18 9 -15 14 7 12 10 11 23 -5z m-2335 -21 c-4 -8 -8 -15 -10 -15 -2
0 -4 7 -4 15 0 8 4 15 10 15 5 0 7 -7 4 -15z m-179 -17 c-4 -36 -4 -38 -15
-38 -18 0 -3 57 16 60 1 0 0 -10 -1 -22z m46 5 c13 -16 12 -17 -3 -4 -17 13
-22 21 -14 21 2 0 10 -8 17 -17z m2459 7 c0 -5 -5 -10 -11 -10 -5 0 -7 5 -4
10 3 6 8 10 11 10 2 0 4 -4 4 -10z m457 -22 c-3 -8 -6 -5 -6 6 -1 11 2 17 5
13 3 -3 4 -12 1 -19z m173 12 c0 -5 -2 -10 -4 -10 -3 0 -8 5 -11 10 -3 6 -1
10 4 10 6 0 11 -4 11 -10z m-3468 -17 c-6 -2 -9 -10 -6 -15 4 -7 2 -8 -4 -4
-18 11 -14 26 6 25 10 0 12 -3 4 -6z m495 -15 c-3 -8 -6 -5 -6 6 -1 11 2 17 5
13 3 -3 4 -12 1 -19z m2230 7 c0 -8 -9 -15 -20 -15 -16 0 -17 3 -7 15 7 8 16
15 20 15 3 0 7 -7 7 -15z m138 5 c-3 -5 -12 -10 -18 -10 -7 0 -6 4 3 10 19 12
23 12 15 0z m179 -5 c-4 -8 -10 -15 -15 -15 -4 0 -6 7 -3 15 4 8 10 15 15 15
4 0 6 -7 3 -15z m426 -1 c0 -2 -7 -4 -15 -4 -8 0 -15 4 -15 10 0 5 7 7 15 4 8
-4 15 -8 15 -10z m-45 -4 c3 -5 1 -10 -4 -10 -6 0 -11 5 -11 10 0 6 2 10 4 10
3 0 8 -4 11 -10z"/>
<path d="M1150 3243 c0 -16 62 -73 80 -73 22 0 9 31 -17 41 -16 6 -36 18 -45
26 -10 9 -18 12 -18 6z"/>
<path d="M4240 1901 c0 -6 4 -13 10 -16 6 -3 7 1 4 9 -7 18 -14 21 -14 7z"/>
<path d="M1955 4602 c-27 -9 -84 -16 -126 -17 -58 -1 -81 -5 -93 -18 -10 -9
-27 -17 -40 -17 -21 0 -72 -29 -52 -30 12 0 76 20 97 31 10 4 43 8 75 7 33 0
86 6 119 15 115 29 113 29 135 7 15 -15 20 -16 20 -6 0 24 -29 46 -58 45 -15
-1 -49 -9 -77 -17z"/>
<path d="M2435 4610 c-3 -6 1 -7 9 -4 18 7 21 14 7 14 -6 0 -13 -4 -16 -10z"/>
<path d="M2608 4433 c7 -3 16 -2 19 1 4 3 -2 6 -13 5 -11 0 -14 -3 -6 -6z"/>
<path d="M667 4383 c-8 -21 -17 -60 -20 -88 l-6 -50 15 45 c8 25 21 64 29 88
17 52 3 56 -18 5z"/>
<path d="M2617 4388 c2 -5 15 -8 28 -8 13 0 25 -3 28 -7 2 -5 2 -3 1 4 -2 6 2
14 9 17 7 3 -7 4 -30 3 -22 -1 -39 -5 -36 -9z"/>
<path d="M2465 4350 c-3 -6 1 -7 9 -4 18 7 21 14 7 14 -6 0 -13 -4 -16 -10z"/>
<path d="M1685 4290 c3 -5 8 -10 11 -10 2 0 4 5 4 10 0 6 -5 10 -11 10 -5 0
-7 -4 -4 -10z"/>
<path d="M1457 4283 c-4 -3 1 -16 12 -27 17 -19 66 -101 101 -169 8 -16 16
-25 18 -19 4 13 -35 101 -65 144 -15 22 -22 42 -17 50 4 7 3 10 -1 5 -5 -4
-16 0 -25 8 -9 8 -20 12 -23 8z"/>
<path d="M3078 4277 c6 -7 33 -24 59 -37 122 -61 209 -145 308 -300 16 -25 39
-61 52 -80 12 -20 30 -59 38 -88 9 -29 20 -52 24 -52 10 0 3 38 -8 45 -4 2 -6
26 -4 52 4 56 -4 96 -16 88 -5 -2 -12 2 -15 11 -4 9 -2 13 5 8 8 -4 9 1 4 17
-15 47 -61 115 -114 169 -30 30 -54 58 -53 63 1 4 -4 7 -12 7 -8 0 -16 3 -18
8 -4 9 -95 49 -132 57 -16 3 -48 15 -70 26 -46 22 -63 24 -48 6z m413 -369
c11 -21 11 -22 -4 -9 -10 7 -17 17 -17 22 0 15 9 10 21 -13z"/>
<path d="M3806 4281 c-11 -18 77 -90 133 -109 48 -17 49 -9 1 12 -22 9 -60 37
-84 61 -25 24 -48 40 -50 36z"/>
<path d="M4042 4167 c-26 -52 -56 -97 -81 -120 -23 -21 -36 -39 -30 -43 27
-17 107 94 144 201 24 66 9 50 -33 -38z"/>
<path d="M1194 4223 c4 -5 13 -8 19 -8 7 -1 11 -6 10 -11 -1 -7 8 -9 23 -6
l25 4 -27 14 c-28 15 -62 19 -50 7z"/>
<path d="M3390 4155 c0 -2 26 -16 58 -30 31 -15 74 -36 96 -46 38 -18 62 -17
50 2 -3 5 -9 7 -14 4 -5 -3 -20 1 -34 10 -25 17 -156 67 -156 60z"/>
<path d="M4121 4084 c23 -52 59 -114 65 -114 3 0 1 8 -4 18 -5 9 -22 45 -37
80 -16 34 -32 62 -36 62 -4 0 1 -21 12 -46z"/>
<path d="M1450 4050 c0 -6 9 -28 20 -50 11 -21 17 -46 14 -54 -4 -11 -1 -16
10 -16 24 0 20 44 -9 90 -26 41 -35 48 -35 30z"/>
<path d="M772 3983 c0 -5 -2 -15 -6 -24 -4 -9 2 -40 13 -69 11 -29 18 -57 15
-62 -3 -4 -1 -8 5 -8 6 0 18 -15 27 -32 9 -18 39 -57 67 -86 75 -76 166 -106
266 -86 33 7 43 24 14 25 -10 0 -3 5 16 12 19 7 36 17 38 23 5 15 -57 24 -80
12 -11 -5 -32 -5 -57 2 -22 6 -46 8 -52 4 -7 -4 -8 -3 -4 4 5 8 -2 12 -18 12
-14 0 -26 5 -26 11 0 8 -6 7 -17 -2 -10 -7 -15 -9 -11 -5 7 8 -32 45 -40 38
-1 -2 -10 4 -18 13 -9 8 -21 15 -28 15 -15 0 -88 154 -88 186 0 13 -4 24 -9
24 -5 0 -8 -3 -7 -7z"/>
<path d="M1330 3973 c0 -9 78 -124 98 -143 2 -3 7 1 9 8 3 6 10 9 16 5 7 -3 1
6 -13 22 -72 80 -110 118 -110 108z"/>
<path d="M1360 3971 c0 -6 5 -13 10 -16 6 -3 10 -1 10 5 0 6 5 8 12 4 7 -4 8
-3 4 4 -9 14 -36 16 -36 3z"/>
<path d="M4052 3959 c3 -8 -5 -22 -16 -32 -12 -10 -16 -16 -10 -13 14 7 27
-21 14 -29 -6 -4 -16 -3 -22 0 -7 4 -2 -2 12 -14 l25 -20 21 24 c12 14 26 25
33 25 6 0 11 5 11 11 0 5 -4 7 -10 4 -13 -8 -13 -3 1 31 l10 28 -21 -19 c-15
-13 -20 -15 -18 -5 2 7 -5 16 -16 18 -12 3 -17 -1 -14 -9z"/>
<path d="M2040 3842 c0 -10 6 -26 13 -37 24 -35 62 -143 82 -230 1 -5 5 -21 8
-35 4 -14 9 -38 11 -55 3 -16 9 -43 15 -60 7 -22 10 -25 11 -10 l1 20 9 -20
c14 -33 23 -59 27 -80 6 -27 9 -37 16 -55 3 -8 8 -40 12 -70 3 -30 13 -79 22
-108 8 -30 11 -58 7 -62 -5 -5 -25 -13 -45 -18 -35 -9 -37 -9 -54 27 -9 20
-18 43 -20 51 -2 8 -15 42 -30 75 -16 33 -30 69 -31 80 -6 34 -133 277 -175
335 -22 30 -49 70 -61 88 -16 25 -23 30 -29 20 -6 -9 -8 -5 -7 11 2 13 -2 26
-8 28 -6 2 -11 -12 -12 -34 -1 -21 -8 -74 -16 -118 -33 -179 -53 -340 -62
-490 -8 -144 -8 -563 1 -595 21 -78 27 -112 30 -172 2 -37 5 -71 8 -75 3 -4 8
-27 12 -50 13 -81 85 -225 85 -170 0 24 13 21 40 -8 13 -14 28 -25 33 -25 5 0
34 -22 64 -49 52 -47 64 -51 112 -42 1 1 -21 17 -50 36 -28 20 -70 53 -91 75
-47 46 -46 58 8 177 29 63 104 163 123 163 3 0 4 -28 2 -62 -4 -75 13 -183 41
-254 23 -61 88 -135 143 -162 47 -24 125 -38 125 -24 0 6 -22 13 -49 17 -53 7
-83 26 -152 97 -62 63 -66 90 -22 124 38 29 103 44 103 24 0 -6 7 -27 16 -46
14 -29 19 -33 47 -28 71 12 77 14 77 35 0 16 5 19 19 14 24 -7 37 25 21 55 -9
17 -7 22 15 30 42 16 71 12 103 -15 29 -24 30 -29 26 -85 -2 -33 -9 -71 -14
-85 -16 -43 -11 -52 9 -15 26 49 32 139 15 224 -18 87 -80 218 -127 269 -19
20 -31 40 -25 43 5 3 55 0 111 -6 104 -13 166 -10 120 5 -13 4 -21 11 -18 15
3 5 1 11 -4 15 -6 3 -8 11 -5 18 7 19 -105 37 -203 32 -45 -2 -87 -6 -93 -10
-13 -8 -13 1 0 26 6 10 21 19 33 19 13 0 31 6 41 13 16 12 15 13 -13 11 -26
-2 -31 2 -31 19 0 18 -5 16 -42 -20 -55 -52 -161 -133 -214 -162 -50 -28 -187
-167 -232 -236 -18 -27 -42 -75 -54 -107 -11 -32 -24 -58 -29 -58 -8 0 -28 65
-48 155 -10 46 -28 165 -51 350 -11 86 -1 525 12 522 5 -1 11 30 13 69 1 39 6
87 10 105 5 28 56 209 71 257 8 27 101 -84 154 -185 17 -32 44 -80 60 -108 32
-54 35 -59 73 -150 41 -97 40 -99 -27 -140 -32 -19 -69 -35 -81 -35 -14 0 -47
-23 -86 -61 -35 -33 -48 -49 -29 -36 34 24 132 79 214 120 47 23 61 17 94 -39
19 -32 22 -49 18 -94 -3 -30 -2 -71 2 -90 6 -26 8 -9 9 65 2 88 -1 106 -23
148 -26 50 -26 51 29 60 l27 4 1 -66 c1 -55 2 -60 9 -33 4 19 7 49 6 68 -2 39
-1 40 102 49 43 4 72 12 72 19 1 24 19 -22 41 -104 25 -94 65 -190 80 -190 12
0 12 1 -11 62 -29 77 -80 260 -80 285 0 12 -20 81 -45 155 -25 73 -45 134 -45
135 0 1 7 0 15 -3 8 -4 15 -1 15 5 0 6 -4 11 -10 11 -5 0 -7 6 -4 14 6 16 -57
136 -81 156 -8 7 -31 42 -51 79 -62 112 -254 259 -254 193z m185 -172 c16 -17
16 -20 3 -15 -9 4 -19 13 -22 21 -7 19 -2 18 19 -6z m-1 -82 c-3 -4 7 -25 21
-47 14 -23 25 -45 25 -50 0 -5 5 -13 11 -17 8 -4 9 1 4 17 -7 23 -7 23 14 -3
11 -14 21 -31 21 -37 0 -6 8 -15 19 -20 10 -6 21 -18 25 -28 5 -15 4 -15 -9 1
-19 25 -19 9 0 -24 9 -15 14 -19 15 -10 1 25 17 -7 36 -70 9 -30 20 -66 25
-79 18 -44 48 -161 41 -159 -4 1 -41 -2 -82 -6 -41 -4 -79 -7 -85 -7 -13 0
-32 90 -49 236 -9 66 -22 151 -30 188 -16 69 -19 158 -5 135 4 -6 6 -15 3 -20z
m87 -1135 c12 -32 3 -98 -19 -131 -29 -45 -112 -68 -140 -40 -16 16 -15 60 1
77 10 11 9 15 -4 24 -14 9 -14 12 5 31 24 24 103 65 129 65 10 1 22 -10 28
-26z m99 -103 c0 -5 -7 -10 -16 -10 -8 0 -12 5 -9 10 3 6 10 10 16 10 5 0 9
-4 9 -10z m138 -16 c15 -4 16 -35 0 -69 -16 -36 -101 -79 -128 -65 -35 19 -77
12 -99 -17 -18 -22 -28 -26 -67 -24 -48 1 -84 15 -97 37 -4 8 -15 14 -22 14
-10 0 -15 11 -15 31 0 31 0 31 25 15 27 -18 90 -22 100 -6 3 6 17 10 31 10 14
0 22 4 19 10 -3 6 1 10 9 10 8 0 18 -9 21 -20 7 -21 25 -28 25 -10 0 6 6 10
14 10 7 0 19 7 26 15 10 13 9 15 -9 15 -27 0 -27 17 0 25 22 7 39 -7 39 -32 0
-15 26 -17 35 -3 3 6 1 10 -6 10 -8 0 -8 4 1 15 10 12 10 15 -4 15 -9 0 -16 7
-16 15 0 11 11 13 53 9 28 -3 58 -7 65 -10z m-168 -184 c0 -5 -5 -10 -11 -10
-5 0 -7 5 -4 10 3 6 8 10 11 10 2 0 4 -4 4 -10z"/>
<path d="M2331 3360 c0 -8 4 -22 9 -30 12 -18 12 -2 0 25 -6 13 -9 15 -9 5z"/>
<path d="M2372 3340 c0 -8 6 -31 13 -50 7 -19 13 -28 13 -20 0 8 -6 31 -13 50
-7 19 -13 28 -13 20z"/>
<path d="M4218 3794 c-6 -10 42 -118 49 -111 2 3 -7 31 -20 62 -13 32 -26 54
-29 49z"/>
<path d="M637 3743 c-6 -10 19 -73 29 -73 3 0 3 8 -1 18 -4 9 -8 25 -11 36 -4
23 -10 30 -17 19z"/>
<path d="M3507 3713 c3 -7 6 -13 8 -13 2 0 5 6 8 13 3 8 -1 14 -8 14 -7 0 -11
-6 -8 -14z"/>
<path d="M3562 3690 c0 -14 2 -19 5 -12 2 6 2 18 0 25 -3 6 -5 1 -5 -13z"/>
<path d="M3530 3658 c0 -9 7 -19 16 -22 24 -9 24 -4 3 18 -16 16 -19 17 -19 4z"/>
<path d="M3602 3638 c-14 -14 -16 -44 -3 -53 18 -10 81 -239 81 -289 0 -14 6
-31 13 -38 7 -7 12 -20 12 -28 0 -8 2 -34 6 -57 l6 -43 -56 0 c-56 0 -157 -22
-172 -37 -5 -5 -4 -14 0 -22 7 -10 15 -10 42 5 24 13 56 18 109 19 l75 0 -1
-80 c-1 -70 -4 -116 -19 -238 -3 -27 6 -30 12 -4 1 7 9 41 17 77 9 36 15 104
16 153 l0 87 39 0 c48 0 51 -8 51 -149 0 -57 3 -102 6 -98 3 3 6 56 5 118 0
61 1 115 4 119 3 5 21 3 41 -3 l37 -11 -7 -90 c-3 -49 -4 -87 -1 -84 14 14 26
129 26 253 0 108 3 134 11 115 12 -29 17 -360 5 -405 l-7 -30 14 25 c14 25 15
25 19 -20 2 -25 4 59 5 185 1 190 -2 241 -16 291 -19 69 -38 79 -35 19 2 -37
1 -36 -11 15 -28 110 -39 140 -51 140 -10 0 -6 -24 12 -92 22 -80 45 -308 32
-308 -2 0 -22 7 -44 14 -38 13 -40 17 -57 82 -10 38 -23 91 -28 118 -6 27 -17
63 -26 80 -20 41 -41 102 -49 148 -7 37 -21 61 -62 104 -25 27 -34 29 -51 12z
m193 -432 c14 -49 24 -91 22 -92 -2 -2 -19 1 -39 6 l-35 10 -6 88 c-3 48 -8
96 -12 107 -7 17 -4 17 18 -5 17 -17 34 -54 52 -114z"/>
<path d="M3549 3578 c4 -28 6 -29 9 -9 2 13 0 27 -5 32 -6 6 -7 -3 -4 -23z"/>
<path d="M3816 3585 c4 -8 10 -15 16 -15 5 0 6 -4 3 -10 -3 -5 -1 -10 4 -10
14 0 14 6 1 31 -12 22 -32 26 -24 4z"/>
<path d="M1621 2924 c0 -11 3 -14 6 -6 3 7 2 16 -1 19 -3 4 -6 -2 -5 -13z"/>
<path d="M1630 2821 c0 -6 5 -13 10 -16 6 -3 10 1 10 9 0 9 -4 16 -10 16 -5 0
-10 -4 -10 -9z"/>
<path d="M2843 2789 c-51 -17 -93 -34 -93 -39 0 -19 19 -19 69 -1 28 11 51 17
51 14 0 -3 6 0 14 6 7 6 28 9 47 6 24 -4 28 -3 15 3 -19 8 -19 9 1 14 12 3 25
2 30 -2 4 -4 125 -11 268 -15 143 -4 263 -9 268 -12 4 -2 7 2 7 10 0 10 7 13
20 10 11 -3 20 0 20 6 0 7 -21 11 -52 11 -100 0 -383 9 -478 14 -88 6 -102 4
-187 -25z"/>
<path d="M915 2780 c-3 -6 1 -7 9 -4 18 7 21 14 7 14 -6 0 -13 -4 -16 -10z"/>
<path d="M615 2761 c-3 -5 -6 -30 -7 -55 -1 -25 -5 -46 -9 -46 -3 0 -16 -28
-28 -62 -53 -151 -112 -273 -171 -353 -20 -27 -49 -75 -64 -105 -16 -30 -35
-62 -43 -71 -8 -9 -31 -42 -51 -72 -130 -193 -160 -235 -184 -256 -15 -13 -25
-28 -22 -33 3 -5 -4 -17 -15 -27 -12 -10 -21 -26 -21 -34 0 -27 63 41 118 129
28 43 69 104 92 134 108 146 142 197 147 221 3 15 20 42 39 60 19 18 34 40 34
50 0 9 7 23 16 30 46 38 162 327 169 421 2 15 5 39 9 53 6 25 2 33 -9 16z"/>
<path d="M2687 2751 c-21 -3 -38 -9 -37 -13 0 -11 0 -11 43 -3 20 4 40 11 43
16 3 5 2 8 -3 8 -4 -1 -25 -5 -46 -8z"/>
<path d="M805 2709 c-4 -12 -2 -26 5 -33 10 -8 11 -7 6 8 -3 10 -1 25 5 32 8
9 8 14 1 14 -6 0 -14 -9 -17 -21z"/>
<path d="M877 2674 c-12 -13 -7 -34 8 -34 9 0 12 -6 9 -15 -4 -8 -11 -12 -18
-8 -6 4 -5 -1 2 -10 8 -9 11 -21 8 -26 -4 -5 -1 -13 5 -17 8 -4 9 -3 5 4 -4 7
-3 12 3 12 11 0 8 60 -6 83 -5 10 -12 14 -16 11z"/>
<path d="M3443 2644 c-29 -19 -53 -39 -53 -44 0 -6 19 3 42 20 22 16 46 30 53
30 6 0 20 7 31 15 19 14 19 14 -1 14 -11 0 -44 -16 -72 -35z"/>
<path d="M3810 2654 c-33 -10 -59 -11 -95 -5 -27 5 -54 6 -60 1 -5 -4 -23 -10
-40 -13 -48 -8 -96 -29 -148 -64 -26 -18 -51 -33 -56 -33 -4 0 -17 -11 -29
-25 -38 -43 -24 -62 18 -25 13 11 26 20 30 20 4 0 -3 -30 -16 -67 -26 -75 -29
-87 -15 -78 6 3 9 -48 8 -127 -2 -133 -2 -133 28 -178 23 -34 41 -48 73 -59
41 -13 45 -12 69 10 30 29 57 78 47 87 -4 4 -9 1 -12 -6 -2 -8 -18 -30 -35
-49 -25 -28 -35 -33 -56 -28 -53 13 -83 59 -96 146 -6 40 -4 48 21 77 16 18
31 32 35 32 4 0 9 -18 13 -40 7 -43 24 -57 54 -44 9 4 23 6 30 5 8 -1 12 11
12 34 0 38 5 42 34 20 15 -12 18 -22 13 -59 -4 -24 -8 -48 -9 -53 -2 -4 2 -9
7 -10 18 -5 27 51 28 172 1 162 -8 197 -64 245 l-29 25 92 2 c119 3 151 -11
195 -87 30 -49 33 -61 33 -137 0 -76 -3 -88 -37 -150 l-37 -68 41 40 c31 31
44 55 58 106 13 50 24 70 41 80 28 14 29 26 8 54 -8 11 -19 35 -24 55 -6 19
-33 60 -61 90 l-51 54 31 28 c17 15 31 29 31 31 0 8 -40 3 -80 -9z m-275 -74
c-3 -5 -12 -10 -18 -10 -7 0 -6 4 3 10 19 12 23 12 15 0z m-1 -89 c-11 -72
-61 -115 -83 -73 -7 14 -5 27 10 51 11 18 17 36 14 41 -7 12 48 41 58 31 4 -4
5 -27 1 -50z m44 -129 c27 -9 34 -8 39 3 8 22 23 8 23 -21 0 -28 -50 -60 -58
-36 -5 15 -54 16 -70 0 -13 -13 -32 -1 -62 42 l-20 27 58 -2 c31 -1 72 -7 90
-13z"/>
<path d="M811 2638 c-1 -9 4 -20 10 -23 6 -4 8 -13 5 -21 -4 -12 -2 -12 14 -4
11 6 20 14 20 17 0 3 -3 4 -6 0 -7 -7 -28 12 -37 33 -4 12 -6 12 -6 -2z"/>
<path d="M2503 2633 c9 -2 25 -2 35 0 9 3 1 5 -18 5 -19 0 -27 -2 -17 -5z"/>
<path d="M826 2514 c-4 -9 -4 -19 -1 -22 2 -3 7 3 11 12 4 9 4 19 1 22 -2 3
-7 -3 -11 -12z"/>
<path d="M822 2438 c2 -12 9 -23 16 -26 18 -6 15 35 -4 42 -11 4 -15 0 -12
-16z"/>
<path d="M4471 2375 c-2 -11 -4 -30 -7 -42 -2 -12 0 -25 5 -28 15 -9 12 -338
-3 -490 -8 -77 -22 -167 -30 -200 -18 -71 -19 -78 -7 -71 10 7 36 118 52 226
13 87 13 489 0 570 -5 30 -9 46 -10 35z"/>
<path d="M975 2320 c7 -21 -10 -29 -18 -7 -2 6 -8 8 -13 4 -5 -4 -3 -12 5 -16
7 -5 12 -11 12 -15 -3 -23 1 -36 10 -36 6 0 9 9 6 19 -3 11 3 28 14 39 19 21
16 32 -8 32 -10 0 -12 -6 -8 -20z"/>
<path d="M1007 2293 c-12 -11 -8 -21 13 -26 17 -4 18 -2 9 14 -11 21 -13 22
-22 12z"/>
<path d="M1341 2074 c0 -11 3 -14 6 -6 3 7 2 16 -1 19 -3 4 -6 -2 -5 -13z"/>
<path d="M1880 1984 c0 -6 7 -19 16 -30 14 -18 14 -18 3 6 -14 31 -19 36 -19
24z"/>
<path d="M1372 1930 c0 -14 2 -19 5 -12 2 6 2 18 0 25 -3 6 -5 1 -5 -13z"/>
<path d="M1856 1941 c-4 -5 -3 -11 2 -13 4 -1 29 -47 55 -100 26 -54 51 -98
57 -98 5 0 -7 27 -26 61 -18 33 -34 64 -34 67 0 14 -35 92 -42 92 -4 0 -9 -4
-12 -9z"/>
<path d="M2540 1900 c0 -5 -6 -10 -14 -10 -7 0 -19 -7 -26 -15 -20 -25 6 -18
37 10 15 13 22 25 16 25 -7 0 -13 -4 -13 -10z"/>
<path d="M513 1879 c-16 -6 -23 -17 -23 -36 0 -19 -12 -38 -42 -66 -22 -21
-63 -66 -89 -100 -27 -34 -59 -73 -71 -87 -13 -13 -22 -30 -20 -36 1 -6 -7
-14 -19 -17 -11 -3 -23 -15 -26 -26 -3 -12 -11 -21 -18 -21 -7 0 -19 -13 -27
-30 -7 -16 -17 -30 -21 -30 -4 0 -13 -14 -19 -31 -7 -20 -15 -28 -25 -25 -8 3
-12 2 -9 -2 8 -13 -24 -53 -36 -46 -7 5 -9 2 -6 -7 3 -8 -9 -29 -28 -49 -28
-28 -46 -70 -30 -70 9 0 144 138 210 215 38 44 82 94 97 110 15 17 38 43 52
59 l24 30 4 -25 c6 -30 -10 -111 -20 -105 -10 7 -43 -63 -36 -75 4 -5 1 -9 -5
-9 -6 0 -9 -4 -6 -9 4 -5 0 -12 -6 -14 -9 -4 -9 -6 -1 -6 17 -1 80 92 95 141
7 23 21 50 31 58 10 8 19 22 20 30 2 8 6 21 10 28 5 6 5 12 1 12 -4 0 0 8 8
18 9 9 19 39 22 65 4 27 14 73 22 104 8 31 13 57 12 58 -2 2 -13 -1 -25 -6z
m-243 -364 c0 -9 -40 -45 -50 -45 -5 0 0 11 12 25 20 23 38 32 38 20z"/>
<path d="M790 1841 c0 -10 -7 -24 -16 -32 -8 -7 -13 -20 -11 -30 3 -12 0 -16
-9 -12 -11 4 -13 -3 -10 -28 2 -18 8 -35 15 -37 6 -2 11 -15 11 -30 0 -18 3
-23 10 -16 11 11 27 204 17 204 -4 0 -7 -8 -7 -19z"/>
<path d="M755 1840 c-3 -5 1 -10 10 -10 9 0 13 5 10 10 -3 6 -8 10 -10 10 -2
0 -7 -4 -10 -10z"/>
<path d="M1806 1765 c10 -8 14 -15 7 -15 -21 0 3 -57 145 -339 150 -301 140
-287 347 -480 l100 -93 -48 7 c-26 3 -64 13 -84 21 -27 12 -38 12 -47 4 -6 -6
-6 -10 -1 -9 6 2 25 -5 43 -14 17 -10 63 -21 101 -26 37 -5 77 -14 89 -20 23
-12 62 -14 86 -5 30 12 16 22 -41 29 -52 6 -63 12 -113 60 -30 29 -69 65 -87
80 -18 14 -42 43 -55 63 -12 20 -35 51 -51 67 -16 17 -40 47 -54 68 -14 20
-27 37 -30 37 -7 0 26 -55 46 -77 30 -31 26 -41 -4 -13 -24 23 -85 122 -85
137 0 5 10 -3 21 -17 l21 -25 -15 25 c-8 14 -21 24 -27 22 -8 -2 -10 3 -6 13
3 9 2 14 -3 10 -5 -3 -15 12 -22 32 -6 21 -25 62 -41 91 -31 54 -26 75 5 22
30 -50 192 -204 217 -205 15 -1 99 -58 104 -71 3 -8 10 -13 15 -10 5 4 16 -1
24 -9 9 -8 22 -15 29 -15 7 0 22 -6 33 -14 28 -19 144 -46 191 -45 21 1 30 3
19 6 -36 8 -75 25 -75 33 0 5 -28 25 -62 46 -149 89 -313 251 -353 346 -7 18
-26 49 -42 69 -15 20 -48 66 -73 102 -25 37 -49 67 -54 67 -5 0 -2 -8 7 -18
10 -10 14 -22 11 -25 -4 -4 1 -9 10 -13 9 -3 16 -12 16 -20 0 -8 22 -45 48
-82 27 -37 52 -75 55 -85 19 -53 185 -245 287 -332 l23 -20 -18 28 -18 29 35
-25 c20 -13 50 -30 67 -37 17 -7 31 -16 31 -21 0 -21 -51 -5 -155 46 -122 61
-263 172 -298 235 -10 19 -27 44 -37 55 -27 31 -100 143 -100 154 0 5 -4 11
-9 13 -5 2 -27 32 -49 68 -60 94 -72 110 -84 110 -7 0 -3 -7 8 -15z"/>
<path d="M3305 1739 c-11 -16 -1 -19 13 -3 7 8 8 14 3 14 -5 0 -13 -5 -16 -11z"/>
<path d="M3952 1665 c0 -16 2 -22 5 -12 2 9 2 23 0 30 -3 6 -5 -1 -5 -18z"/>
<path d="M712 1668 c-7 -7 -12 -17 -12 -22 0 -6 -11 -33 -24 -60 -25 -52 -25
-86 0 -65 8 6 14 17 14 23 0 6 15 21 33 34 17 12 26 22 18 22 -10 0 -12 10 -7
40 6 41 0 50 -22 28z"/>
<path d="M3956 1583 c-13 -90 -66 -221 -111 -275 -32 -38 -32 -59 -1 -29 51
48 112 195 123 299 7 65 -2 69 -11 5z"/>
<path d="M437 1544 c-4 -4 -7 -14 -7 -23 0 -11 3 -12 11 -4 6 6 10 16 7 23 -2
6 -7 8 -11 4z"/>
<path d="M4393 1455 c-3 -9 -3 -18 -1 -21 3 -3 8 4 11 16 6 23 -1 27 -10 5z"/>
<path d="M342 1353 c-5 -10 -7 -23 -5 -29 2 -6 -3 -14 -12 -17 -17 -7 -19 6
-5 34 9 15 7 19 -5 19 -9 0 -23 -16 -32 -37 -41 -100 -99 -204 -131 -233 -12
-11 -22 -26 -22 -33 0 -7 -29 -48 -65 -92 -40 -50 -65 -89 -65 -105 0 -24 1
-24 13 -4 57 96 64 102 104 99 14 -1 23 4 23 12 0 7 7 16 15 19 8 4 15 16 15
28 -1 19 -2 19 -11 4 -16 -27 -29 -21 -16 7 7 14 17 23 22 21 22 -8 46 23 51
65 6 53 10 59 35 59 11 0 18 4 14 10 -3 5 -11 8 -18 6 -7 -1 -9 -1 -4 1 4 3 7
11 7 19 0 8 5 14 11 14 6 0 9 -7 5 -15 -3 -8 -2 -15 3 -15 15 0 21 13 10 26
-13 16 16 89 31 79 16 -10 40 14 40 40 0 13 6 26 13 28 9 4 9 6 0 6 -7 1 -16
-7 -21 -16z"/>
<path d="M3215 1274 c-51 -36 -78 -80 -91 -149 -8 -43 7 -51 63 -36 27 7 44
20 54 38 8 16 21 33 30 40 22 16 49 75 49 106 0 17 -7 26 -22 31 -31 8 -27 9
-83 -30z m78 0 c19 -20 -71 -155 -111 -166 -31 -9 -45 7 -29 33 8 14 13 15 20
6 5 -7 5 2 2 21 -5 25 -3 32 9 32 8 0 13 6 11 13 -3 6 12 24 33 39 38 28 54
33 65 22z"/>
<path d="M300 1254 c0 -8 5 -12 10 -9 6 3 10 10 10 16 0 5 -4 9 -10 9 -5 0
-10 -7 -10 -16z"/>
<path d="M4277 1210 c-20 -33 -35 -60 -32 -60 8 0 78 110 74 115 -3 2 -21 -23
-42 -55z"/>
<path d="M566 1123 c-6 -14 -5 -15 5 -6 7 7 10 15 7 18 -3 3 -9 -2 -12 -12z"/>
<path d="M555 1070 c-4 -16 -11 -32 -16 -35 -15 -10 -10 -43 9 -54 16 -10 15
-12 -10 -15 -6 0 -12 -15 -13 -33 -1 -17 -7 -39 -14 -47 -7 -8 -11 -21 -8 -28
2 -7 -1 -20 -8 -28 -7 -8 -27 -58 -44 -110 -18 -52 -39 -109 -46 -125 -8 -17
-16 -44 -19 -60 -3 -17 -8 -41 -11 -55 -3 -14 -7 -41 -9 -60 -3 -19 -10 -48
-16 -64 -7 -18 -7 -33 -1 -39 5 -5 2 -16 -9 -27 -22 -22 -39 -98 -47 -207 -4
-55 -2 -83 5 -83 10 0 28 97 19 106 -5 5 40 163 72 256 11 31 22 73 25 93 3
20 13 46 21 59 8 12 12 26 8 30 -4 4 0 4 9 1 12 -5 19 3 28 32 7 21 17 41 23
44 13 9 52 -34 78 -87 11 -24 25 -44 30 -44 6 0 7 -5 4 -10 -3 -6 0 -13 8 -16
8 -3 18 -22 22 -42 4 -20 10 -41 14 -47 9 -12 8 -33 -3 -60 -28 -68 -71 -148
-96 -181 -17 -20 -30 -40 -30 -44 0 -4 -14 -24 -30 -45 -17 -21 -28 -40 -25
-43 8 -8 32 17 66 66 17 26 29 38 26 27 -17 -61 -18 -72 -3 -84 11 -9 16 -10
16 -2 0 6 -4 11 -10 11 -5 0 -10 7 -10 15 0 18 5 18 30 5 13 -7 17 -16 13 -28
-6 -15 -4 -15 15 2 20 17 27 15 23 -6 0 -5 4 -8 9 -8 6 0 10 4 10 9 0 6 10 7
23 4 89 -21 85 -28 57 101 -22 99 -26 151 -10 141 17 -10 11 7 -7 22 -10 8
-12 11 -5 8 11 -6 11 -3 0 14 -10 16 -10 25 -1 40 9 15 7 27 -11 66 -15 31
-26 43 -30 34 -3 -8 -3 -4 0 9 3 14 0 30 -9 40 -21 25 -50 116 -37 120 5 2 10
15 10 28 0 38 -31 124 -44 124 -18 0 -44 81 -38 120 2 19 5 45 4 58 0 12 4 22
9 22 6 0 6 7 1 18 -5 9 -7 41 -5 70 3 58 -2 68 -12 22z m-1 -65 c-4 -8 -8 -15
-10 -15 -2 0 -4 7 -4 15 0 8 4 15 10 15 5 0 7 -7 4 -15z m53 -917 c-3 -8 -6
-5 -6 6 -1 11 2 17 5 13 3 -3 4 -12 1 -19z"/>
<path d="M2310 972 c0 -10 58 -33 124 -51 66 -17 51 -6 -31 25 -43 16 -81 31
-85 32 -4 2 -8 -1 -8 -6z"/>
<path d="M2159 900 c21 -18 51 -27 51 -15 0 6 -56 35 -67 35 -4 -1 3 -10 16
-20z"/>
<path d="M109 856 c-1 -3 -2 -9 -3 -13 -1 -5 -4 -12 -7 -18 -4 -5 -10 -25 -14
-42 -3 -18 -11 -33 -16 -33 -5 0 -11 -11 -15 -25 -3 -14 -10 -25 -14 -25 -15
0 -40 -68 -40 -107 l1 -38 29 34 29 34 -6 -49 c-3 -27 -12 -66 -19 -86 -7 -22
-9 -38 -4 -38 6 0 10 7 10 15 0 9 6 12 15 8 9 -3 15 -2 14 3 -1 5 0 16 3 24
20 57 28 89 28 108 0 12 3 22 8 22 4 0 8 15 8 33 1 17 4 67 7 109 3 44 2 80
-4 83 -5 4 -10 4 -10 1z"/>
<path d="M163 635 c-7 -8 -13 -24 -13 -37 0 -37 -108 -187 -120 -167 -14 21
-30 -55 -29 -134 1 -56 6 -82 17 -93 13 -14 13 -17 1 -25 -24 -15 20 -11 71 7
65 23 99 45 102 68 2 13 10 21 23 21 11 0 20 7 21 15 0 21 35 123 45 134 4 5
4 17 -2 28 -7 14 -6 18 6 18 8 0 15 5 15 11 0 5 -5 7 -11 4 -6 -4 -13 2 -16
14 -3 14 -12 20 -26 17 -17 -2 -24 -16 -37 -77 -23 -99 -33 -121 -70 -152 -32
-27 -44 -31 -90 -27 -29 2 -53 20 -28 20 9 0 44 26 77 58 48 45 61 64 61 87 0
17 7 55 15 85 8 30 11 56 7 58 -4 1 -6 20 -4 42 4 44 3 46 -15 25z"/>
<path d="M4333 212 c-9 -6 -9 -14 2 -35 8 -15 14 -30 14 -33 -1 -3 2 -8 5 -11
3 -4 6 3 6 15 0 11 -5 24 -11 28 -8 4 -8 9 -1 13 6 4 8 12 4 18 -4 7 -13 9
-19 5z"/>
<path d="M4365 60 c3 -5 8 -10 11 -10 2 0 4 5 4 10 0 6 -5 10 -11 10 -5 0 -7
-4 -4 -10z"/>
<path d="M1040 50 c0 -5 9 -10 20 -10 11 0 20 5 20 10 0 6 -9 10 -20 10 -11 0
-20 -4 -20 -10z"/>
<path d="M4213 54 c12 -4 15 -12 11 -30 -4 -14 -2 -24 4 -24 6 0 10 12 9 27
-2 20 -8 28 -22 30 -16 1 -16 1 -2 -3z"/>
<path d="M1018 3 c7 -3 16 -2 19 1 4 3 -2 6 -13 5 -11 0 -14 -3 -6 -6z"/>
</g>
</svg>
